<svg id="svg" xmlns="http://www.w3.org/2000/svg" xmlns:xlink="http://www.w3.org/1999/xlink" width="400" height="400" viewBox="0, 0, 400,400"><g id="svgg"><path id="path0" d="M73.680 19.680 C 73.416 19.944,73.200 20.394,73.200 20.680 C 73.200 20.968,72.754 21.200,72.200 21.200 C 71.400 21.200,71.200 21.400,71.200 22.200 C 71.200 23.000,71.000 23.200,70.200 23.200 C 69.400 23.200,69.200 23.400,69.200 24.200 C 69.200 25.000,69.000 25.200,68.200 25.200 C 67.400 25.200,67.200 25.400,67.200 26.200 C 67.200 27.000,67.000 27.200,66.200 27.200 C 65.400 27.200,65.200 27.400,65.200 28.200 C 65.200 29.000,65.000 29.200,64.200 29.200 C 63.400 29.200,63.200 29.400,63.200 30.200 C 63.200 31.000,63.000 31.200,62.200 31.200 C 61.400 31.200,61.200 31.400,61.200 32.200 C 61.200 33.000,61.000 33.200,60.200 33.200 C 59.400 33.200,59.200 33.400,59.200 34.200 C 59.200 35.000,59.000 35.200,58.200 35.200 C 57.400 35.200,57.200 35.400,57.200 36.200 C 57.200 37.000,57.000 37.200,56.200 37.200 C 55.400 37.200,55.200 37.400,55.200 38.200 C 55.200 39.000,55.000 39.200,54.200 39.200 C 53.400 39.200,53.200 39.400,53.200 40.200 C 53.200 41.000,53.000 41.200,52.200 41.200 C 51.407 41.200,51.200 41.402,51.200 42.173 C 51.200 42.794,50.911 43.238,50.401 43.400 C 49.136 43.801,49.177 38.068,49.291 201.000 L 49.400 356.600 50.300 356.728 C 50.951 356.820,51.200 357.124,51.200 357.828 C 51.200 358.598,51.408 358.800,52.200 358.800 C 53.000 358.800,53.200 359.000,53.200 359.800 C 53.200 360.600,53.400 360.800,54.200 360.800 C 55.000 360.800,55.200 361.000,55.200 361.800 C 55.200 362.600,55.400 362.800,56.200 362.800 C 57.000 362.800,57.200 363.000,57.200 363.800 C 57.200 364.600,57.400 364.800,58.200 364.800 C 59.000 364.800,59.200 365.000,59.200 365.800 C 59.200 366.600,59.400 366.800,60.200 366.800 C 61.000 366.800,61.200 367.000,61.200 367.800 C 61.200 368.600,61.400 368.800,62.200 368.800 C 63.000 368.800,63.200 369.000,63.200 369.800 C 63.200 370.600,63.400 370.800,64.200 370.800 C 65.000 370.800,65.200 371.000,65.200 371.800 C 65.200 372.600,65.400 372.800,66.200 372.800 C 67.000 372.800,67.200 373.000,67.200 373.800 C 67.200 374.600,67.400 374.800,68.200 374.800 C 69.000 374.800,69.200 375.000,69.200 375.800 C 69.200 376.600,69.400 376.800,70.200 376.800 C 71.000 376.800,71.200 377.000,71.200 377.800 C 71.200 378.600,71.400 378.800,72.200 378.800 C 73.000 378.800,73.200 379.000,73.200 379.800 L 73.200 380.800 80.019 380.800 L 86.838 380.800 88.719 378.831 C 92.309 375.073,92.800 374.447,92.800 373.626 C 92.800 373.012,93.056 372.800,93.800 372.800 C 94.600 372.800,94.800 372.600,94.800 371.800 C 94.800 371.000,95.000 370.800,95.800 370.800 C 96.600 370.800,96.800 370.600,96.800 369.800 C 96.800 369.000,97.000 368.800,97.800 368.800 C 98.600 368.800,98.800 368.600,98.800 367.800 C 98.800 367.178,99.027 366.800,99.400 366.800 C 99.773 366.800,100.000 366.422,100.000 365.800 C 100.000 363.847,101.147 364.655,101.278 366.700 C 101.381 368.304,101.536 368.619,102.275 368.725 C 102.821 368.802,103.198 369.179,103.275 369.725 C 103.353 370.270,103.730 370.647,104.275 370.725 C 104.821 370.802,105.198 371.179,105.275 371.725 C 105.353 372.270,105.730 372.647,106.275 372.725 C 106.821 372.802,107.198 373.179,107.275 373.725 C 107.353 374.270,107.730 374.647,108.275 374.725 C 108.821 374.802,109.198 375.179,109.275 375.725 C 109.354 376.279,109.730 376.647,110.300 376.728 C 110.951 376.820,111.200 377.124,111.200 377.828 C 111.200 378.586,111.410 378.800,112.157 378.800 C 112.846 378.800,113.184 379.082,113.367 379.810 L 113.620 380.820 119.910 380.710 C 125.999 380.604,126.213 380.571,126.595 379.700 C 126.837 379.148,127.340 378.800,127.895 378.800 C 128.594 378.800,128.800 378.572,128.800 377.800 C 128.800 377.000,129.000 376.800,129.800 376.800 C 130.600 376.800,130.800 376.600,130.800 375.800 C 130.800 375.000,131.000 374.800,131.800 374.800 C 132.600 374.800,132.800 374.600,132.800 373.800 C 132.800 373.000,133.000 372.800,133.800 372.800 C 134.600 372.800,134.800 372.600,134.800 371.800 C 134.800 371.000,135.000 370.800,135.800 370.800 C 136.600 370.800,136.800 370.600,136.800 369.800 C 136.800 369.000,137.000 368.800,137.800 368.800 C 138.733 368.800,138.800 368.667,138.800 366.800 C 138.800 365.015,138.893 364.800,139.667 364.800 C 140.143 364.800,140.420 364.914,140.281 365.053 C 140.142 365.191,140.292 365.681,140.614 366.142 C 140.936 366.602,141.200 367.388,141.200 367.889 C 141.200 368.594,141.426 368.800,142.200 368.800 C 143.000 368.800,143.200 369.000,143.200 369.800 C 143.200 370.600,143.400 370.800,144.200 370.800 C 145.000 370.800,145.200 371.000,145.200 371.800 C 145.200 372.600,145.400 372.800,146.200 372.800 C 147.000 372.800,147.200 373.000,147.200 373.800 C 147.200 374.600,147.400 374.800,148.200 374.800 C 149.000 374.800,149.200 375.000,149.200 375.800 C 149.200 376.600,149.400 376.800,150.200 376.800 C 151.000 376.800,151.200 377.000,151.200 377.800 C 151.200 378.572,151.406 378.800,152.105 378.800 C 152.660 378.800,153.163 379.148,153.405 379.700 C 154.030 381.125,164.671 381.321,164.871 379.911 C 164.978 379.154,165.304 378.966,166.800 378.800 C 168.288 378.635,168.622 378.444,168.728 377.700 C 168.820 377.049,169.124 376.800,169.828 376.800 C 170.598 376.800,170.800 376.592,170.800 375.800 C 170.800 375.000,171.000 374.800,171.800 374.800 C 172.600 374.800,172.800 374.600,172.800 373.800 C 172.800 373.000,173.000 372.800,173.800 372.800 C 174.600 372.800,174.800 372.600,174.800 371.800 C 174.800 371.000,175.000 370.800,175.800 370.800 C 176.600 370.800,176.800 370.600,176.800 369.800 C 176.800 369.000,177.000 368.800,177.800 368.800 C 178.733 368.800,178.800 368.667,178.800 366.800 C 178.800 364.611,179.700 363.952,180.164 365.800 C 180.302 366.350,180.592 366.800,180.808 366.800 C 181.023 366.800,181.200 367.250,181.200 367.800 C 181.200 368.600,181.400 368.800,182.200 368.800 C 183.000 368.800,183.200 369.000,183.200 369.800 C 183.200 370.600,183.400 370.800,184.200 370.800 C 185.000 370.800,185.200 371.000,185.200 371.800 C 185.200 372.600,185.400 372.800,186.200 372.800 C 187.000 372.800,187.200 373.000,187.200 373.800 C 187.200 374.600,187.400 374.800,188.200 374.800 C 189.000 374.800,189.200 375.000,189.200 375.800 C 189.200 376.600,189.400 376.800,190.200 376.800 C 191.000 376.800,191.200 377.000,191.200 377.800 C 191.200 378.592,191.402 378.800,192.172 378.800 C 192.876 378.800,193.180 379.049,193.272 379.700 C 193.486 381.202,204.338 381.298,205.825 379.811 C 206.381 379.255,207.278 378.800,207.818 378.800 C 208.599 378.800,208.800 378.595,208.800 377.800 C 208.800 377.000,209.000 376.800,209.800 376.800 C 210.600 376.800,210.800 376.600,210.800 375.800 C 210.800 375.000,211.000 374.800,211.800 374.800 C 212.600 374.800,212.800 374.600,212.800 373.800 C 212.800 373.000,213.000 372.800,213.800 372.800 C 214.600 372.800,214.800 372.600,214.800 371.800 C 214.800 371.000,215.000 370.800,215.800 370.800 C 216.600 370.800,216.800 370.600,216.800 369.800 C 216.800 369.000,217.000 368.800,217.800 368.800 C 218.733 368.800,218.800 368.667,218.800 366.800 C 218.800 365.289,218.947 364.800,219.400 364.800 C 219.773 364.800,220.000 365.178,220.000 365.800 C 220.000 366.422,220.227 366.800,220.600 366.800 C 220.973 366.800,221.200 367.178,221.200 367.800 C 221.200 368.600,221.400 368.800,222.200 368.800 C 223.000 368.800,223.200 369.000,223.200 369.800 C 223.200 370.600,223.400 370.800,224.200 370.800 C 225.000 370.800,225.200 371.000,225.200 371.800 C 225.200 372.600,225.400 372.800,226.200 372.800 C 227.000 372.800,227.200 373.000,227.200 373.800 C 227.200 374.600,227.400 374.800,228.200 374.800 C 229.000 374.800,229.200 375.000,229.200 375.800 C 229.200 376.600,229.400 376.800,230.200 376.800 C 231.000 376.800,231.200 377.000,231.200 377.800 C 231.200 378.592,231.402 378.800,232.172 378.800 C 232.876 378.800,233.180 379.049,233.272 379.700 C 233.475 381.128,244.669 381.331,244.871 379.911 C 244.982 379.130,245.271 378.983,246.900 378.878 C 248.615 378.768,248.800 378.661,248.800 377.778 C 248.800 377.001,249.006 376.800,249.800 376.800 C 250.600 376.800,250.800 376.600,250.800 375.800 C 250.800 375.000,251.000 374.800,251.800 374.800 C 252.593 374.800,252.800 374.598,252.800 373.827 C 252.800 373.062,253.036 372.826,253.900 372.727 C 254.677 372.637,255.037 372.343,255.125 371.725 C 255.202 371.179,255.579 370.802,256.125 370.725 C 256.670 370.647,257.047 370.270,257.125 369.725 C 257.202 369.179,257.579 368.802,258.125 368.725 C 258.905 368.614,258.987 368.394,258.880 366.700 C 258.785 365.199,258.890 364.800,259.380 364.800 C 259.775 364.800,260.000 365.163,260.000 365.800 C 260.000 366.422,260.227 366.800,260.600 366.800 C 260.973 366.800,261.200 367.178,261.200 367.800 C 261.200 368.600,261.400 368.800,262.200 368.800 C 263.000 368.800,263.200 369.000,263.200 369.800 C 263.200 370.600,263.400 370.800,264.200 370.800 C 265.000 370.800,265.200 371.000,265.200 371.800 C 265.200 372.600,265.400 372.800,266.200 372.800 C 267.000 372.800,267.200 373.000,267.200 373.800 C 267.200 374.600,267.400 374.800,268.200 374.800 C 269.000 374.800,269.200 375.000,269.200 375.800 C 269.200 376.600,269.400 376.800,270.200 376.800 C 271.000 376.800,271.200 377.000,271.200 377.800 C 271.200 378.592,271.402 378.800,272.172 378.800 C 272.876 378.800,273.180 379.049,273.272 379.700 C 273.397 380.580,273.527 380.602,279.227 380.710 L 285.054 380.821 285.595 379.810 C 286.003 379.047,286.454 378.800,287.440 378.800 C 288.488 378.800,288.769 378.623,288.872 377.900 C 288.952 377.335,289.321 376.954,289.862 376.877 C 290.387 376.802,290.821 376.372,290.970 375.777 C 291.121 375.176,291.504 374.800,291.964 374.800 C 292.430 374.800,292.808 374.421,292.964 373.800 C 293.125 373.158,293.497 372.800,294.000 372.800 C 294.503 372.800,294.875 372.442,295.036 371.800 C 295.192 371.179,295.570 370.800,296.036 370.800 C 296.496 370.800,296.879 370.424,297.030 369.823 C 297.179 369.228,297.613 368.798,298.138 368.723 C 298.903 368.614,298.986 368.386,298.880 366.700 C 298.785 365.199,298.890 364.800,299.380 364.800 C 299.775 364.800,300.000 365.163,300.000 365.800 C 300.000 366.422,300.227 366.800,300.600 366.800 C 300.973 366.800,301.200 367.178,301.200 367.800 C 301.200 368.600,301.400 368.800,302.200 368.800 C 303.000 368.800,303.200 369.000,303.200 369.800 C 303.200 370.600,303.400 370.800,304.200 370.800 C 305.000 370.800,305.200 371.000,305.200 371.800 C 305.200 372.600,305.400 372.800,306.200 372.800 C 307.000 372.800,307.200 373.000,307.200 373.800 C 307.200 374.600,307.400 374.800,308.200 374.800 C 309.000 374.800,309.200 375.000,309.200 375.800 C 309.200 376.600,309.400 376.800,310.200 376.800 C 311.000 376.800,311.200 377.000,311.200 377.800 C 311.200 378.592,311.402 378.800,312.172 378.800 C 312.876 378.800,313.180 379.049,313.272 379.700 C 313.486 381.202,324.338 381.298,325.825 379.811 C 326.381 379.255,327.278 378.800,327.818 378.800 C 328.599 378.800,328.800 378.595,328.800 377.800 C 328.800 377.000,329.000 376.800,329.800 376.800 C 330.600 376.800,330.800 376.600,330.800 375.800 C 330.800 375.000,331.000 374.800,331.800 374.800 C 332.600 374.800,332.800 374.600,332.800 373.800 C 332.800 373.000,333.000 372.800,333.800 372.800 C 334.600 372.800,334.800 372.600,334.800 371.800 C 334.800 371.000,335.000 370.800,335.800 370.800 C 336.600 370.800,336.800 370.600,336.800 369.800 C 336.800 368.992,336.998 368.800,337.830 368.800 C 338.805 368.800,338.854 368.699,338.765 366.900 C 338.666 364.924,340.529 362.000,341.886 362.000 C 342.183 362.000,342.529 361.730,342.655 361.400 C 342.817 360.980,343.472 360.800,344.843 360.800 C 346.664 360.800,346.800 360.730,346.800 359.800 C 346.800 359.000,347.000 358.800,347.800 358.800 C 348.592 358.800,348.800 358.598,348.800 357.828 C 348.800 357.124,349.049 356.820,349.700 356.728 L 350.600 356.600 350.701 199.900 L 350.801 43.200 349.801 43.200 C 349.000 43.200,348.800 43.000,348.800 42.200 C 348.800 41.400,348.600 41.200,347.800 41.200 C 347.000 41.200,346.800 41.000,346.800 40.200 C 346.800 39.400,346.600 39.200,345.800 39.200 C 345.000 39.200,344.800 39.000,344.800 38.200 C 344.800 37.400,344.600 37.200,343.800 37.200 C 343.000 37.200,342.800 37.000,342.800 36.200 C 342.800 35.400,342.600 35.200,341.800 35.200 C 341.000 35.200,340.800 35.000,340.800 34.200 C 340.800 33.400,340.600 33.200,339.800 33.200 C 339.000 33.200,338.800 33.000,338.800 32.200 C 338.800 31.400,338.600 31.200,337.800 31.200 C 337.000 31.200,336.800 31.000,336.800 30.200 C 336.800 29.400,336.600 29.200,335.800 29.200 C 335.000 29.200,334.800 29.000,334.800 28.200 C 334.800 27.400,334.600 27.200,333.800 27.200 C 333.000 27.200,332.800 27.000,332.800 26.200 C 332.800 25.400,332.600 25.200,331.800 25.200 C 331.000 25.200,330.800 25.000,330.800 24.200 C 330.800 23.400,330.600 23.200,329.800 23.200 C 329.000 23.200,328.800 23.000,328.800 22.200 C 328.800 21.400,328.600 21.200,327.800 21.200 C 327.000 21.200,326.800 21.000,326.800 20.200 L 326.800 19.200 320.000 19.200 L 313.200 19.200 313.200 20.200 C 313.200 20.992,312.998 21.200,312.228 21.200 C 311.524 21.200,311.220 21.449,311.128 22.100 C 311.047 22.670,310.679 23.046,310.125 23.125 C 309.579 23.202,309.202 23.579,309.125 24.125 C 309.047 24.670,308.670 25.047,308.125 25.125 C 307.579 25.202,307.202 25.579,307.125 26.125 C 307.047 26.670,306.670 27.047,306.125 27.125 C 305.579 27.202,305.202 27.579,305.125 28.125 C 305.046 28.679,304.670 29.047,304.100 29.128 C 303.449 29.220,303.200 29.524,303.200 30.228 C 303.200 30.998,302.992 31.200,302.200 31.200 C 301.400 31.200,301.200 31.400,301.200 32.200 C 301.200 33.575,299.322 33.665,299.128 32.300 C 299.047 31.730,298.679 31.354,298.125 31.275 C 297.579 31.198,297.202 30.821,297.125 30.275 C 297.047 29.730,296.670 29.353,296.125 29.275 C 295.579 29.198,295.202 28.821,295.125 28.275 C 295.047 27.730,294.670 27.353,294.125 27.275 C 293.579 27.198,293.202 26.821,293.125 26.275 C 293.047 25.730,292.670 25.353,292.125 25.275 C 291.579 25.198,291.202 24.821,291.125 24.275 C 291.047 23.730,290.670 23.353,290.125 23.275 C 289.579 23.198,289.202 22.821,289.125 22.275 C 289.037 21.663,288.677 21.363,287.925 21.276 C 287.172 21.189,286.812 20.889,286.725 20.276 C 286.526 18.878,273.471 18.902,273.272 20.300 C 273.180 20.951,272.876 21.200,272.172 21.200 C 271.402 21.200,271.200 21.408,271.200 22.200 C 271.200 23.000,271.000 23.200,270.200 23.200 C 269.400 23.200,269.200 23.400,269.200 24.200 C 269.200 25.000,269.000 25.200,268.200 25.200 C 267.400 25.200,267.200 25.400,267.200 26.200 C 267.200 27.000,267.000 27.200,266.200 27.200 C 265.400 27.200,265.200 27.400,265.200 28.200 C 265.200 29.000,265.000 29.200,264.200 29.200 C 263.400 29.200,263.200 29.400,263.200 30.200 C 263.200 31.000,263.000 31.200,262.200 31.200 C 261.393 31.200,261.200 31.398,261.200 32.227 C 261.200 33.110,261.047 33.236,260.100 33.127 C 259.340 33.039,259.033 32.797,259.108 32.342 C 259.177 31.920,258.784 31.533,258.012 31.264 C 257.216 30.987,256.883 30.650,257.029 30.270 C 257.175 29.889,256.837 29.552,256.029 29.270 C 255.167 28.970,254.878 28.661,255.047 28.221 C 255.222 27.765,254.959 27.532,254.065 27.353 C 253.221 27.184,252.806 26.845,252.722 26.254 C 252.647 25.730,252.262 25.352,251.725 25.275 C 251.179 25.198,250.802 24.821,250.725 24.275 C 250.646 23.721,250.270 23.353,249.700 23.272 C 249.049 23.180,248.800 22.876,248.800 22.172 C 248.800 21.429,248.587 21.200,247.895 21.200 C 247.340 21.200,246.837 20.852,246.595 20.300 C 245.978 18.893,234.022 18.893,233.405 20.300 C 233.163 20.852,232.660 21.200,232.105 21.200 C 231.406 21.200,231.200 21.428,231.200 22.200 C 231.200 23.000,231.000 23.200,230.200 23.200 C 229.400 23.200,229.200 23.400,229.200 24.200 C 229.200 25.000,229.000 25.200,228.200 25.200 C 227.400 25.200,227.200 25.400,227.200 26.200 C 227.200 27.000,227.000 27.200,226.200 27.200 C 225.400 27.200,225.200 27.400,225.200 28.200 C 225.200 29.000,225.000 29.200,224.200 29.200 C 223.400 29.200,223.200 29.400,223.200 30.200 C 223.200 31.000,223.000 31.200,222.200 31.200 C 221.400 31.200,221.200 31.400,221.200 32.200 C 221.200 33.044,221.013 33.200,220.000 33.200 C 218.987 33.200,218.800 33.044,218.800 32.200 C 218.800 31.400,218.600 31.200,217.800 31.200 C 217.000 31.200,216.800 31.000,216.800 30.200 C 216.800 29.400,216.600 29.200,215.800 29.200 C 215.000 29.200,214.800 29.000,214.800 28.200 C 214.800 27.400,214.600 27.200,213.800 27.200 C 213.000 27.200,212.800 27.000,212.800 26.200 C 212.800 25.400,212.600 25.200,211.800 25.200 C 211.000 25.200,210.800 25.000,210.800 24.200 C 210.800 23.400,210.600 23.200,209.800 23.200 C 209.000 23.200,208.800 23.000,208.800 22.200 C 208.800 21.408,208.598 21.200,207.828 21.200 C 207.124 21.200,206.820 20.951,206.728 20.300 C 206.526 18.881,193.474 18.881,193.272 20.300 C 193.180 20.951,192.876 21.200,192.172 21.200 C 191.402 21.200,191.200 21.408,191.200 22.200 C 191.200 23.000,191.000 23.200,190.200 23.200 C 189.400 23.200,189.200 23.400,189.200 24.200 C 189.200 25.000,189.000 25.200,188.200 25.200 C 187.400 25.200,187.200 25.400,187.200 26.200 C 187.200 27.000,187.000 27.200,186.200 27.200 C 185.400 27.200,185.200 27.400,185.200 28.200 C 185.200 29.000,185.000 29.200,184.200 29.200 C 183.400 29.200,183.200 29.400,183.200 30.200 C 183.200 31.000,183.000 31.200,182.200 31.200 C 181.400 31.200,181.200 31.400,181.200 32.200 C 181.200 33.044,181.013 33.200,180.000 33.200 C 178.987 33.200,178.800 33.044,178.800 32.200 C 178.800 31.400,178.600 31.200,177.800 31.200 C 177.000 31.200,176.800 31.000,176.800 30.200 C 176.800 29.400,176.600 29.200,175.800 29.200 C 175.000 29.200,174.800 29.000,174.800 28.200 C 174.800 27.400,174.600 27.200,173.800 27.200 C 173.000 27.200,172.800 27.000,172.800 26.200 C 172.800 25.400,172.600 25.200,171.800 25.200 C 171.000 25.200,170.800 25.000,170.800 24.200 C 170.800 23.400,170.600 23.200,169.800 23.200 C 169.000 23.200,168.800 23.000,168.800 22.200 C 168.800 21.400,168.600 21.200,167.800 21.200 C 167.000 21.200,166.800 21.000,166.800 20.200 L 166.800 19.200 160.000 19.200 L 153.200 19.200 153.200 20.200 C 153.200 20.992,152.998 21.200,152.228 21.200 C 151.524 21.200,151.220 21.449,151.128 22.100 C 151.046 22.678,150.678 23.046,150.100 23.128 C 149.449 23.220,149.200 23.524,149.200 24.228 C 149.200 24.998,148.992 25.200,148.200 25.200 C 147.400 25.200,147.200 25.400,147.200 26.200 C 147.200 27.000,147.000 27.200,146.200 27.200 C 145.400 27.200,145.200 27.400,145.200 28.200 C 145.200 29.000,145.000 29.200,144.200 29.200 C 143.400 29.200,143.200 29.400,143.200 30.200 C 143.200 31.000,143.000 31.200,142.200 31.200 C 141.400 31.200,141.200 31.400,141.200 32.200 C 141.200 33.044,141.013 33.200,140.000 33.200 C 138.987 33.200,138.800 33.044,138.800 32.200 C 138.800 31.400,138.600 31.200,137.800 31.200 C 137.000 31.200,136.800 31.000,136.800 30.200 C 136.800 29.400,136.600 29.200,135.800 29.200 C 135.000 29.200,134.800 29.000,134.800 28.200 C 134.800 27.400,134.600 27.200,133.800 27.200 C 133.000 27.200,132.800 27.000,132.800 26.200 C 132.800 25.400,132.600 25.200,131.800 25.200 C 131.000 25.200,130.800 25.000,130.800 24.200 C 130.800 23.400,130.600 23.200,129.800 23.200 C 129.000 23.200,128.800 23.000,128.800 22.200 C 128.800 21.400,128.600 21.200,127.800 21.200 C 126.997 21.200,126.800 21.001,126.800 20.190 L 126.800 19.181 120.100 19.290 C 113.494 19.398,113.398 19.413,113.272 20.300 C 113.180 20.951,112.876 21.200,112.172 21.200 C 111.402 21.200,111.200 21.408,111.200 22.200 C 111.200 23.000,111.000 23.200,110.200 23.200 C 109.400 23.200,109.200 23.400,109.200 24.200 C 109.200 25.000,109.000 25.200,108.200 25.200 C 107.400 25.200,107.200 25.400,107.200 26.200 C 107.200 27.000,107.000 27.200,106.200 27.200 C 105.400 27.200,105.200 27.400,105.200 28.200 C 105.200 29.000,105.000 29.200,104.200 29.200 C 103.400 29.200,103.200 29.400,103.200 30.200 C 103.200 31.000,103.000 31.200,102.200 31.200 C 101.400 31.200,101.200 31.400,101.200 32.200 C 101.200 33.044,101.013 33.200,100.000 33.200 C 98.987 33.200,98.800 33.044,98.800 32.200 C 98.800 31.400,98.600 31.200,97.800 31.200 C 97.000 31.200,96.800 31.000,96.800 30.200 C 96.800 29.400,96.600 29.200,95.800 29.200 C 95.000 29.200,94.800 29.000,94.800 28.200 C 94.800 27.400,94.600 27.200,93.800 27.200 C 93.000 27.200,92.800 27.000,92.800 26.200 C 92.800 25.400,92.600 25.200,91.800 25.200 C 91.000 25.200,90.800 25.000,90.800 24.200 C 90.800 23.400,90.600 23.200,89.800 23.200 C 89.000 23.200,88.800 23.000,88.800 22.200 C 88.800 21.400,88.600 21.200,87.800 21.200 C 87.000 21.200,86.800 21.000,86.800 20.200 L 86.800 19.200 80.480 19.200 C 76.098 19.200,74.013 19.347,73.680 19.680 M95.884 59.154 C 100.751 61.600,103.627 60.323,112.600 51.732 C 120.669 44.006,119.464 44.025,127.028 51.505 C 138.690 63.037,140.891 63.115,151.800 52.376 C 160.527 43.786,159.236 43.853,166.995 51.579 C 178.514 63.049,181.283 63.041,192.733 51.504 C 200.321 43.858,199.140 43.846,207.017 51.657 C 218.356 62.902,220.788 62.886,232.594 51.484 C 240.418 43.928,239.231 43.902,247.133 51.804 C 257.753 62.424,260.695 62.769,269.357 54.407 C 271.755 52.093,273.915 50.018,274.158 49.795 C 274.401 49.572,275.612 48.443,276.849 47.285 C 279.803 44.521,279.862 44.547,287.177 51.860 C 298.249 62.930,300.393 62.988,311.216 52.514 C 318.781 45.192,318.895 45.104,320.199 45.600 C 321.347 46.036,327.754 52.280,328.907 54.086 C 329.561 55.111,329.600 63.299,329.600 200.108 L 329.600 345.045 328.700 346.222 C 326.973 348.482,321.183 354.026,320.134 354.425 C 319.129 354.807,318.730 354.486,312.238 348.070 C 304.575 340.496,303.660 339.872,300.200 339.849 C 295.294 339.817,295.313 339.806,287.716 347.332 C 283.903 351.110,280.382 354.307,279.892 354.438 C 279.147 354.637,277.881 353.580,272.200 348.014 C 260.725 336.769,258.904 336.804,247.000 348.492 C 239.385 355.969,240.467 355.956,233.154 348.660 C 220.930 336.465,218.192 336.455,206.597 348.567 C 199.516 355.964,200.546 355.963,193.195 348.581 C 181.714 337.053,178.946 337.055,167.002 348.602 C 159.433 355.919,160.483 355.907,153.395 348.755 C 142.040 337.298,139.194 337.006,129.523 346.308 C 126.841 348.888,123.848 351.765,122.873 352.700 C 120.122 355.337,119.978 355.274,113.048 348.410 C 105.215 340.652,104.662 340.278,100.707 340.075 C 96.250 339.846,96.057 339.973,86.147 349.658 C 79.901 355.762,80.388 355.749,74.736 349.952 L 70.400 345.505 70.400 200.212 L 70.400 54.920 71.556 53.360 C 73.530 50.697,78.936 45.670,80.000 45.508 C 80.837 45.380,82.075 46.411,87.600 51.831 C 91.236 55.399,94.956 58.687,95.884 59.154 M263.609 119.100 C 260.219 120.832,121.283 259.866,119.590 263.220 C 115.221 271.874,125.108 280.511,133.984 275.794 C 136.799 274.297,277.534 132.621,278.015 130.800 C 280.356 121.921,271.756 114.937,263.609 119.100 M145.200 120.435 C 144.210 120.627,143.040 120.960,142.600 121.175 C 142.160 121.390,141.040 121.760,140.111 121.996 C 138.605 122.378,137.008 123.155,131.936 125.968 C 129.307 127.426,124.124 132.913,121.720 136.783 C 115.228 147.236,114.831 162.598,120.810 172.000 C 121.020 172.330,121.579 173.318,122.053 174.196 C 123.064 176.070,130.061 183.171,131.800 184.089 C 132.460 184.437,134.260 185.385,135.800 186.196 C 138.302 187.512,141.314 188.499,146.200 189.604 C 152.602 191.050,164.350 188.614,170.190 184.628 C 193.639 168.624,192.069 136.163,167.234 123.495 C 165.169 122.442,163.311 121.827,158.400 120.574 C 155.966 119.953,148.124 119.870,145.200 120.435 M157.452 141.372 C 169.516 146.896,169.715 162.573,157.800 168.753 C 147.285 174.208,133.591 162.824,137.193 151.623 C 140.211 142.237,149.298 137.639,157.452 141.372 M238.365 210.013 C 229.507 211.049,217.818 218.473,213.807 225.610 C 204.157 242.784,207.648 262.933,222.000 272.894 C 229.469 278.078,234.770 279.785,243.400 279.785 C 274.874 279.785,290.389 242.136,268.045 219.980 C 259.965 211.968,250.069 208.645,238.365 210.013 M247.206 230.001 C 259.110 232.259,262.102 249.677,251.790 256.684 C 237.522 266.380,221.049 248.356,231.883 234.902 C 235.469 230.449,240.717 228.770,247.206 230.001 " stroke="none" fill="#fbfbfc" fill-rule="evenodd"></path><path id="path1" d="M80.000 45.508 C 78.936 45.670,73.530 50.697,71.556 53.360 L 70.400 54.920 70.400 200.212 L 70.400 345.505 74.736 349.952 C 80.388 355.749,79.901 355.762,86.147 349.658 C 96.057 339.973,96.250 339.846,100.707 340.075 C 104.662 340.278,105.215 340.652,113.048 348.410 C 119.978 355.274,120.122 355.337,122.873 352.700 C 123.848 351.765,126.841 348.888,129.523 346.308 C 139.194 337.006,142.040 337.298,153.395 348.755 C 160.483 355.907,159.433 355.919,167.002 348.602 C 178.946 337.055,181.714 337.053,193.195 348.581 C 200.546 355.963,199.516 355.964,206.597 348.567 C 218.192 336.455,220.930 336.465,233.154 348.660 C 240.467 355.956,239.385 355.969,247.000 348.492 C 254.770 340.862,255.669 340.252,259.411 340.063 C 263.567 339.854,264.402 340.372,272.200 348.014 C 277.881 353.580,279.147 354.637,279.892 354.438 C 280.382 354.307,283.903 351.110,287.716 347.332 C 295.313 339.806,295.294 339.817,300.200 339.849 C 303.660 339.872,304.575 340.496,312.238 348.070 C 318.730 354.486,319.129 354.807,320.134 354.425 C 321.183 354.026,326.973 348.482,328.700 346.222 L 329.600 345.045 329.600 200.108 C 329.600 63.299,329.561 55.111,328.907 54.086 C 327.754 52.280,321.347 46.036,320.199 45.600 C 318.895 45.104,318.781 45.192,311.216 52.514 C 300.393 62.988,298.249 62.930,287.177 51.860 C 279.862 44.547,279.803 44.521,276.849 47.285 C 275.612 48.443,274.401 49.572,274.158 49.795 C 273.915 50.018,271.755 52.093,269.357 54.407 C 260.695 62.769,257.753 62.424,247.133 51.804 C 239.231 43.902,240.418 43.928,232.594 51.484 C 220.788 62.886,218.356 62.902,207.017 51.657 C 199.140 43.846,200.321 43.858,192.733 51.504 C 181.283 63.041,178.514 63.049,166.995 51.579 C 159.236 43.853,160.527 43.786,151.800 52.376 C 140.891 63.115,138.690 63.037,127.028 51.505 C 119.464 44.025,120.669 44.006,112.600 51.732 C 100.732 63.095,99.087 63.102,87.600 51.831 C 82.075 46.411,80.837 45.380,80.000 45.508 M273.104 119.070 C 277.537 121.313,279.365 125.678,278.015 130.800 C 277.534 132.621,136.799 274.297,133.984 275.794 C 125.108 280.511,115.221 271.874,119.590 263.220 C 121.283 259.866,260.219 120.832,263.609 119.100 C 266.602 117.570,270.117 117.559,273.104 119.070 M158.400 120.574 C 163.311 121.827,165.169 122.442,167.234 123.495 C 192.069 136.163,193.639 168.624,170.190 184.628 C 164.350 188.614,152.602 191.050,146.200 189.604 C 141.314 188.499,138.302 187.512,135.800 186.196 C 134.260 185.385,132.460 184.437,131.800 184.089 C 130.061 183.171,123.064 176.070,122.053 174.196 C 121.579 173.318,121.020 172.330,120.810 172.000 C 114.831 162.598,115.228 147.236,121.720 136.783 C 124.124 132.913,129.307 127.426,131.936 125.968 C 137.008 123.155,138.605 122.378,140.111 121.996 C 141.040 121.760,142.160 121.390,142.600 121.175 C 145.040 119.980,154.643 119.615,158.400 120.574 M148.800 140.352 C 137.244 142.902,132.813 156.970,140.935 165.325 C 151.430 176.121,168.249 167.546,166.279 152.404 C 165.279 144.721,156.484 138.657,148.800 140.352 M247.698 209.982 C 277.799 213.150,289.363 252.669,265.800 271.847 C 253.764 281.643,236.941 282.723,224.400 274.506 C 221.499 272.605,220.925 272.124,217.993 269.137 C 206.554 257.487,204.996 241.290,213.807 225.610 C 219.592 215.314,234.229 208.565,247.698 209.982 M238.798 230.140 C 230.979 232.250,226.247 242.109,229.428 249.665 C 235.963 265.194,258.111 261.059,258.052 244.322 C 258.015 234.006,249.021 227.382,238.798 230.140 M342.655 361.400 C 342.529 361.730,342.194 362.000,341.913 362.001 C 340.983 362.002,338.590 364.931,338.728 365.900 C 338.847 366.741,339.050 366.800,341.828 366.800 L 344.800 366.800 344.800 363.800 C 344.800 360.804,343.460 359.304,342.655 361.400 M100.000 365.800 C 100.000 366.422,100.227 366.800,100.600 366.800 C 100.973 366.800,101.200 366.422,101.200 365.800 C 101.200 365.178,100.973 364.800,100.600 364.800 C 100.227 364.800,100.000 365.178,100.000 365.800 M138.800 365.800 C 138.800 366.600,139.000 366.800,139.800 366.800 C 140.814 366.800,141.136 366.255,140.393 365.796 C 140.170 365.658,140.091 365.377,140.217 365.172 C 140.344 364.968,140.077 364.800,139.624 364.800 C 139.012 364.800,138.800 365.057,138.800 365.800 M178.800 365.800 C 178.800 366.550,179.010 366.800,179.643 366.800 C 180.247 366.800,180.417 366.621,180.243 366.167 C 180.109 365.819,180.000 365.369,180.000 365.167 C 180.000 364.965,179.730 364.800,179.400 364.800 C 179.027 364.800,178.800 365.178,178.800 365.800 M218.800 365.800 C 218.800 366.422,219.027 366.800,219.400 366.800 C 219.773 366.800,220.000 366.422,220.000 365.800 C 220.000 365.178,219.773 364.800,219.400 364.800 C 219.027 364.800,218.800 365.178,218.800 365.800 M258.800 365.800 C 258.800 366.422,259.027 366.800,259.400 366.800 C 259.773 366.800,260.000 366.422,260.000 365.800 C 260.000 365.178,259.773 364.800,259.400 364.800 C 259.027 364.800,258.800 365.178,258.800 365.800 M298.800 365.800 C 298.800 366.422,299.027 366.800,299.400 366.800 C 299.773 366.800,300.000 366.422,300.000 365.800 C 300.000 365.178,299.773 364.800,299.400 364.800 C 299.027 364.800,298.800 365.178,298.800 365.800 " stroke="none" fill="#3db1ff" fill-rule="evenodd"></path></g></svg>