<svg id="svg" xmlns="http://www.w3.org/2000/svg" xmlns:xlink="http://www.w3.org/1999/xlink" width="400" height="400" viewBox="0, 0, 400,400"><g id="svgg"><path id="path0" d="M73.680 19.680 C 73.416 19.944,73.200 20.394,73.200 20.680 C 73.200 20.968,72.754 21.200,72.200 21.200 C 71.400 21.200,71.200 21.400,71.200 22.200 C 71.200 23.000,71.000 23.200,70.200 23.200 C 69.400 23.200,69.200 23.400,69.200 24.200 C 69.200 25.000,69.000 25.200,68.200 25.200 C 67.400 25.200,67.200 25.400,67.200 26.200 C 67.200 27.000,67.000 27.200,66.200 27.200 C 65.400 27.200,65.200 27.400,65.200 28.200 C 65.200 29.000,65.000 29.200,64.200 29.200 C 63.400 29.200,63.200 29.400,63.200 30.200 C 63.200 31.000,63.000 31.200,62.200 31.200 C 61.400 31.200,61.200 31.400,61.200 32.200 C 61.200 33.000,61.000 33.200,60.200 33.200 C 59.400 33.200,59.200 33.400,59.200 34.200 C 59.200 35.000,59.000 35.200,58.200 35.200 C 57.400 35.200,57.200 35.400,57.200 36.200 C 57.200 37.000,57.000 37.200,56.200 37.200 C 55.400 37.200,55.200 37.400,55.200 38.200 C 55.200 39.000,55.000 39.200,54.200 39.200 C 53.400 39.200,53.200 39.400,53.200 40.200 C 53.200 41.000,53.000 41.200,52.200 41.200 C 51.407 41.200,51.200 41.402,51.200 42.173 C 51.200 42.794,50.911 43.238,50.401 43.400 C 49.136 43.801,49.177 38.068,49.291 201.000 L 49.400 356.600 50.300 356.728 C 50.951 356.820,51.200 357.124,51.200 357.828 C 51.200 358.598,51.408 358.800,52.200 358.800 C 53.000 358.800,53.200 359.000,53.200 359.800 C 53.200 360.600,53.400 360.800,54.200 360.800 C 55.000 360.800,55.200 361.000,55.200 361.800 C 55.200 362.600,55.400 362.800,56.200 362.800 C 57.000 362.800,57.200 363.000,57.200 363.800 C 57.200 364.600,57.400 364.800,58.200 364.800 C 59.000 364.800,59.200 365.000,59.200 365.800 C 59.200 366.600,59.400 366.800,60.200 366.800 C 61.000 366.800,61.200 367.000,61.200 367.800 C 61.200 368.600,61.400 368.800,62.200 368.800 C 63.000 368.800,63.200 369.000,63.200 369.800 C 63.200 370.600,63.400 370.800,64.200 370.800 C 65.000 370.800,65.200 371.000,65.200 371.800 C 65.200 372.600,65.400 372.800,66.200 372.800 C 67.000 372.800,67.200 373.000,67.200 373.800 C 67.200 374.600,67.400 374.800,68.200 374.800 C 69.000 374.800,69.200 375.000,69.200 375.800 C 69.200 376.600,69.400 376.800,70.200 376.800 C 71.000 376.800,71.200 377.000,71.200 377.800 C 71.200 378.600,71.400 378.800,72.200 378.800 C 73.000 378.800,73.200 379.000,73.200 379.800 L 73.200 380.800 80.019 380.800 L 86.838 380.800 88.719 378.831 C 92.309 375.073,92.800 374.447,92.800 373.626 C 92.800 373.012,93.056 372.800,93.800 372.800 C 94.600 372.800,94.800 372.600,94.800 371.800 C 94.800 371.000,95.000 370.800,95.800 370.800 C 96.600 370.800,96.800 370.600,96.800 369.800 C 96.800 369.000,97.000 368.800,97.800 368.800 C 98.733 368.800,98.800 368.667,98.800 366.800 L 98.800 364.800 100.141 364.800 L 101.483 364.800 101.290 366.800 C 101.104 368.741,101.129 368.800,102.149 368.800 C 103.003 368.800,103.200 368.987,103.200 369.800 C 103.200 370.600,103.400 370.800,104.200 370.800 C 105.000 370.800,105.200 371.000,105.200 371.800 C 105.200 372.600,105.400 372.800,106.200 372.800 C 107.000 372.800,107.200 373.000,107.200 373.800 C 107.200 374.600,107.400 374.800,108.200 374.800 C 109.000 374.800,109.200 375.000,109.200 375.800 C 109.200 376.600,109.400 376.800,110.200 376.800 C 111.000 376.800,111.200 377.000,111.200 377.800 C 111.200 378.588,111.403 378.800,112.157 378.800 C 112.846 378.800,113.184 379.082,113.367 379.810 L 113.620 380.820 119.910 380.710 C 125.999 380.604,126.213 380.571,126.595 379.700 C 126.837 379.148,127.340 378.800,127.895 378.800 C 128.594 378.800,128.800 378.572,128.800 377.800 C 128.800 377.000,129.000 376.800,129.800 376.800 C 130.600 376.800,130.800 376.600,130.800 375.800 C 130.800 375.000,131.000 374.800,131.800 374.800 C 132.600 374.800,132.800 374.600,132.800 373.800 C 132.800 373.000,133.000 372.800,133.800 372.800 C 134.600 372.800,134.800 372.600,134.800 371.800 C 134.800 371.000,135.000 370.800,135.800 370.800 C 136.600 370.800,136.800 370.600,136.800 369.800 C 136.800 369.000,137.000 368.800,137.800 368.800 C 138.733 368.800,138.800 368.667,138.800 366.800 C 138.800 364.844,138.827 364.800,140.000 364.800 C 141.173 364.800,141.200 364.844,141.200 366.800 C 141.200 368.667,141.267 368.800,142.200 368.800 C 143.000 368.800,143.200 369.000,143.200 369.800 C 143.200 370.600,143.400 370.800,144.200 370.800 C 145.000 370.800,145.200 371.000,145.200 371.800 C 145.200 372.600,145.400 372.800,146.200 372.800 C 147.000 372.800,147.200 373.000,147.200 373.800 C 147.200 374.600,147.400 374.800,148.200 374.800 C 149.000 374.800,149.200 375.000,149.200 375.800 C 149.200 376.600,149.400 376.800,150.200 376.800 C 151.000 376.800,151.200 377.000,151.200 377.800 C 151.200 378.572,151.406 378.800,152.105 378.800 C 152.660 378.800,153.163 379.148,153.405 379.700 C 154.030 381.125,164.671 381.321,164.871 379.911 C 164.982 379.130,165.271 378.983,166.900 378.878 C 168.615 378.768,168.800 378.661,168.800 377.778 C 168.800 377.001,169.006 376.800,169.800 376.800 C 170.600 376.800,170.800 376.600,170.800 375.800 C 170.800 375.000,171.000 374.800,171.800 374.800 C 172.600 374.800,172.800 374.600,172.800 373.800 C 172.800 373.000,173.000 372.800,173.800 372.800 C 174.600 372.800,174.800 372.600,174.800 371.800 C 174.800 371.000,175.000 370.800,175.800 370.800 C 176.600 370.800,176.800 370.600,176.800 369.800 C 176.800 369.000,177.000 368.800,177.800 368.800 C 178.733 368.800,178.800 368.667,178.800 366.800 C 178.800 364.844,178.827 364.800,180.000 364.800 C 181.173 364.800,181.200 364.844,181.200 366.800 C 181.200 368.667,181.267 368.800,182.200 368.800 C 183.000 368.800,183.200 369.000,183.200 369.800 C 183.200 370.600,183.400 370.800,184.200 370.800 C 185.000 370.800,185.200 371.000,185.200 371.800 C 185.200 372.600,185.400 372.800,186.200 372.800 C 187.000 372.800,187.200 373.000,187.200 373.800 C 187.200 374.600,187.400 374.800,188.200 374.800 C 189.000 374.800,189.200 375.000,189.200 375.800 C 189.200 376.600,189.400 376.800,190.200 376.800 C 191.000 376.800,191.200 377.000,191.200 377.800 C 191.200 378.592,191.402 378.800,192.172 378.800 C 192.876 378.800,193.180 379.049,193.272 379.700 C 193.486 381.202,204.338 381.298,205.825 379.811 C 206.381 379.255,207.278 378.800,207.818 378.800 C 208.599 378.800,208.800 378.595,208.800 377.800 C 208.800 377.000,209.000 376.800,209.800 376.800 C 210.600 376.800,210.800 376.600,210.800 375.800 C 210.800 375.000,211.000 374.800,211.800 374.800 C 212.600 374.800,212.800 374.600,212.800 373.800 C 212.800 373.000,213.000 372.800,213.800 372.800 C 214.600 372.800,214.800 372.600,214.800 371.800 C 214.800 371.000,215.000 370.800,215.800 370.800 C 216.600 370.800,216.800 370.600,216.800 369.800 C 216.800 369.000,217.000 368.800,217.800 368.800 C 218.742 368.800,218.800 368.676,218.800 366.655 C 218.800 363.553,220.627 363.707,221.044 366.845 C 221.272 368.562,221.418 368.800,222.252 368.800 C 222.997 368.800,223.200 369.014,223.200 369.800 C 223.200 370.600,223.400 370.800,224.200 370.800 C 225.000 370.800,225.200 371.000,225.200 371.800 C 225.200 372.600,225.400 372.800,226.200 372.800 C 227.000 372.800,227.200 373.000,227.200 373.800 C 227.200 374.600,227.400 374.800,228.200 374.800 C 229.000 374.800,229.200 375.000,229.200 375.800 C 229.200 376.600,229.400 376.800,230.200 376.800 C 231.000 376.800,231.200 377.000,231.200 377.800 C 231.200 378.592,231.402 378.800,232.172 378.800 C 232.876 378.800,233.180 379.049,233.272 379.700 C 233.475 381.128,244.669 381.331,244.871 379.911 C 244.982 379.130,245.271 378.983,246.900 378.878 C 248.615 378.768,248.800 378.661,248.800 377.778 C 248.800 377.001,249.006 376.800,249.800 376.800 C 250.600 376.800,250.800 376.600,250.800 375.800 C 250.800 375.000,251.000 374.800,251.800 374.800 C 252.593 374.800,252.800 374.598,252.800 373.827 C 252.800 373.062,253.036 372.826,253.900 372.727 C 254.677 372.637,255.037 372.343,255.125 371.725 C 255.202 371.179,255.579 370.802,256.125 370.725 C 256.670 370.647,257.047 370.270,257.125 369.725 C 257.202 369.179,257.579 368.802,258.125 368.725 C 259.057 368.592,259.249 367.482,258.649 365.700 C 258.377 364.892,258.476 364.800,259.620 364.800 C 260.762 364.800,260.874 364.903,260.702 365.800 C 260.597 366.350,260.666 366.800,260.855 366.800 C 261.045 366.800,261.200 367.250,261.200 367.800 C 261.200 368.600,261.400 368.800,262.200 368.800 C 263.000 368.800,263.200 369.000,263.200 369.800 C 263.200 370.600,263.400 370.800,264.200 370.800 C 265.000 370.800,265.200 371.000,265.200 371.800 C 265.200 372.600,265.400 372.800,266.200 372.800 C 267.000 372.800,267.200 373.000,267.200 373.800 C 267.200 374.600,267.400 374.800,268.200 374.800 C 269.000 374.800,269.200 375.000,269.200 375.800 C 269.200 376.600,269.400 376.800,270.200 376.800 C 271.000 376.800,271.200 377.000,271.200 377.800 C 271.200 378.592,271.402 378.800,272.172 378.800 C 272.876 378.800,273.180 379.049,273.272 379.700 C 273.397 380.580,273.527 380.602,279.227 380.710 L 285.054 380.821 285.595 379.810 C 286.003 379.047,286.454 378.800,287.440 378.800 C 288.488 378.800,288.769 378.623,288.872 377.900 C 288.952 377.335,289.321 376.954,289.862 376.877 C 290.387 376.802,290.821 376.372,290.970 375.777 C 291.121 375.176,291.504 374.800,291.964 374.800 C 292.430 374.800,292.808 374.421,292.964 373.800 C 293.125 373.158,293.497 372.800,294.000 372.800 C 294.503 372.800,294.875 372.442,295.036 371.800 C 295.192 371.179,295.570 370.800,296.036 370.800 C 296.501 370.800,296.880 370.421,297.036 369.800 C 297.195 369.167,297.569 368.800,298.056 368.800 C 299.078 368.800,299.426 367.770,298.800 366.600 C 298.130 365.348,298.513 364.400,299.576 364.678 C 300.117 364.819,300.400 365.220,300.400 365.847 C 300.400 366.371,300.580 366.800,300.800 366.800 C 301.020 366.800,301.200 367.250,301.200 367.800 C 301.200 368.600,301.400 368.800,302.200 368.800 C 303.000 368.800,303.200 369.000,303.200 369.800 C 303.200 370.600,303.400 370.800,304.200 370.800 C 305.000 370.800,305.200 371.000,305.200 371.800 C 305.200 372.600,305.400 372.800,306.200 372.800 C 307.000 372.800,307.200 373.000,307.200 373.800 C 307.200 374.600,307.400 374.800,308.200 374.800 C 309.000 374.800,309.200 375.000,309.200 375.800 C 309.200 376.600,309.400 376.800,310.200 376.800 C 311.000 376.800,311.200 377.000,311.200 377.800 C 311.200 378.592,311.402 378.800,312.172 378.800 C 312.876 378.800,313.180 379.049,313.272 379.700 C 313.486 381.202,324.338 381.298,325.825 379.811 C 326.381 379.255,327.278 378.800,327.818 378.800 C 328.599 378.800,328.800 378.595,328.800 377.800 C 328.800 377.000,329.000 376.800,329.800 376.800 C 330.600 376.800,330.800 376.600,330.800 375.800 C 330.800 375.000,331.000 374.800,331.800 374.800 C 332.600 374.800,332.800 374.600,332.800 373.800 C 332.800 373.000,333.000 372.800,333.800 372.800 C 334.600 372.800,334.800 372.600,334.800 371.800 C 334.800 371.000,335.000 370.800,335.800 370.800 C 336.600 370.800,336.800 370.600,336.800 369.800 C 336.800 368.986,336.996 368.800,337.854 368.800 C 338.876 368.800,338.901 368.744,338.658 366.972 C 338.373 364.888,339.977 362.293,341.840 361.826 C 342.368 361.693,342.800 361.408,342.800 361.192 C 342.800 360.977,343.700 360.800,344.800 360.800 C 346.667 360.800,346.800 360.733,346.800 359.800 C 346.800 359.000,347.000 358.800,347.800 358.800 C 348.592 358.800,348.800 358.598,348.800 357.828 C 348.800 357.124,349.049 356.820,349.700 356.728 L 350.600 356.600 350.701 199.900 L 350.801 43.200 349.801 43.200 C 349.000 43.200,348.800 43.000,348.800 42.200 C 348.800 41.400,348.600 41.200,347.800 41.200 C 347.000 41.200,346.800 41.000,346.800 40.200 C 346.800 39.400,346.600 39.200,345.800 39.200 C 345.000 39.200,344.800 39.000,344.800 38.200 C 344.800 37.400,344.600 37.200,343.800 37.200 C 343.000 37.200,342.800 37.000,342.800 36.200 C 342.800 35.400,342.600 35.200,341.800 35.200 C 341.000 35.200,340.800 35.000,340.800 34.200 C 340.800 33.400,340.600 33.200,339.800 33.200 C 339.000 33.200,338.800 33.000,338.800 32.200 C 338.800 31.400,338.600 31.200,337.800 31.200 C 337.000 31.200,336.800 31.000,336.800 30.200 C 336.800 29.400,336.600 29.200,335.800 29.200 C 335.000 29.200,334.800 29.000,334.800 28.200 C 334.800 27.400,334.600 27.200,333.800 27.200 C 333.000 27.200,332.800 27.000,332.800 26.200 C 332.800 25.400,332.600 25.200,331.800 25.200 C 331.000 25.200,330.800 25.000,330.800 24.200 C 330.800 23.400,330.600 23.200,329.800 23.200 C 329.000 23.200,328.800 23.000,328.800 22.200 C 328.800 21.400,328.600 21.200,327.800 21.200 C 327.000 21.200,326.800 21.000,326.800 20.200 L 326.800 19.200 320.000 19.200 L 313.200 19.200 313.200 20.200 C 313.200 20.992,312.998 21.200,312.228 21.200 C 311.524 21.200,311.220 21.449,311.128 22.100 C 311.047 22.670,310.679 23.046,310.125 23.125 C 309.579 23.202,309.202 23.579,309.125 24.125 C 309.047 24.670,308.670 25.047,308.125 25.125 C 307.579 25.202,307.202 25.579,307.125 26.125 C 307.047 26.670,306.670 27.047,306.125 27.125 C 305.579 27.202,305.202 27.579,305.125 28.125 C 305.046 28.679,304.670 29.047,304.100 29.128 C 303.449 29.220,303.200 29.524,303.200 30.228 C 303.200 30.998,302.992 31.200,302.200 31.200 C 301.400 31.200,301.200 31.400,301.200 32.200 C 301.200 33.575,299.322 33.665,299.128 32.300 C 299.047 31.730,298.679 31.354,298.125 31.275 C 297.579 31.198,297.202 30.821,297.125 30.275 C 297.047 29.730,296.670 29.353,296.125 29.275 C 295.579 29.198,295.202 28.821,295.125 28.275 C 295.047 27.730,294.670 27.353,294.125 27.275 C 293.579 27.198,293.202 26.821,293.125 26.275 C 293.047 25.730,292.670 25.353,292.125 25.275 C 291.579 25.198,291.202 24.821,291.125 24.275 C 291.047 23.730,290.670 23.353,290.125 23.275 C 289.579 23.198,289.202 22.821,289.125 22.275 C 289.037 21.663,288.677 21.363,287.925 21.276 C 287.172 21.189,286.812 20.889,286.725 20.276 C 286.526 18.878,273.471 18.902,273.272 20.300 C 273.180 20.951,272.876 21.200,272.172 21.200 C 271.402 21.200,271.200 21.408,271.200 22.200 C 271.200 23.000,271.000 23.200,270.200 23.200 C 269.400 23.200,269.200 23.400,269.200 24.200 C 269.200 25.000,269.000 25.200,268.200 25.200 C 267.400 25.200,267.200 25.400,267.200 26.200 C 267.200 27.000,267.000 27.200,266.200 27.200 C 265.400 27.200,265.200 27.400,265.200 28.200 C 265.200 29.000,265.000 29.200,264.200 29.200 C 263.400 29.200,263.200 29.400,263.200 30.200 C 263.200 31.000,263.000 31.200,262.200 31.200 C 261.400 31.200,261.200 31.400,261.200 32.200 C 261.200 33.575,259.322 33.665,259.128 32.300 C 259.047 31.730,258.679 31.354,258.125 31.275 C 257.579 31.198,257.202 30.821,257.125 30.275 C 257.047 29.730,256.670 29.353,256.125 29.275 C 255.579 29.198,255.202 28.821,255.125 28.275 C 255.037 27.657,254.677 27.363,253.900 27.273 C 253.036 27.174,252.800 26.938,252.800 26.173 C 252.800 25.402,252.593 25.200,251.800 25.200 C 251.000 25.200,250.800 25.000,250.800 24.200 C 250.800 23.400,250.600 23.200,249.800 23.200 C 249.000 23.200,248.800 23.000,248.800 22.200 C 248.800 21.428,248.594 21.200,247.895 21.200 C 247.340 21.200,246.837 20.852,246.595 20.300 C 245.978 18.893,234.022 18.893,233.405 20.300 C 233.163 20.852,232.660 21.200,232.105 21.200 C 231.406 21.200,231.200 21.428,231.200 22.200 C 231.200 23.000,231.000 23.200,230.200 23.200 C 229.400 23.200,229.200 23.400,229.200 24.200 C 229.200 25.000,229.000 25.200,228.200 25.200 C 227.400 25.200,227.200 25.400,227.200 26.200 C 227.200 27.000,227.000 27.200,226.200 27.200 C 225.400 27.200,225.200 27.400,225.200 28.200 C 225.200 29.000,225.000 29.200,224.200 29.200 C 223.400 29.200,223.200 29.400,223.200 30.200 C 223.200 31.000,223.000 31.200,222.200 31.200 C 221.400 31.200,221.200 31.400,221.200 32.200 C 221.200 33.044,221.013 33.200,220.000 33.200 C 218.987 33.200,218.800 33.044,218.800 32.200 C 218.800 31.400,218.600 31.200,217.800 31.200 C 217.000 31.200,216.800 31.000,216.800 30.200 C 216.800 29.400,216.600 29.200,215.800 29.200 C 215.000 29.200,214.800 29.000,214.800 28.200 C 214.800 27.400,214.600 27.200,213.800 27.200 C 213.000 27.200,212.800 27.000,212.800 26.200 C 212.800 25.400,212.600 25.200,211.800 25.200 C 211.000 25.200,210.800 25.000,210.800 24.200 C 210.800 23.400,210.600 23.200,209.800 23.200 C 209.000 23.200,208.800 23.000,208.800 22.200 C 208.800 21.408,208.598 21.200,207.828 21.200 C 207.124 21.200,206.820 20.951,206.728 20.300 C 206.526 18.881,193.474 18.881,193.272 20.300 C 193.180 20.951,192.876 21.200,192.172 21.200 C 191.402 21.200,191.200 21.408,191.200 22.200 C 191.200 23.000,191.000 23.200,190.200 23.200 C 189.400 23.200,189.200 23.400,189.200 24.200 C 189.200 25.000,189.000 25.200,188.200 25.200 C 187.400 25.200,187.200 25.400,187.200 26.200 C 187.200 27.000,187.000 27.200,186.200 27.200 C 185.400 27.200,185.200 27.400,185.200 28.200 C 185.200 29.000,185.000 29.200,184.200 29.200 C 183.400 29.200,183.200 29.400,183.200 30.200 C 183.200 31.000,183.000 31.200,182.200 31.200 C 181.400 31.200,181.200 31.400,181.200 32.200 C 181.200 33.044,181.013 33.200,180.000 33.200 C 178.987 33.200,178.800 33.044,178.800 32.200 C 178.800 31.400,178.600 31.200,177.800 31.200 C 177.000 31.200,176.800 31.000,176.800 30.200 C 176.800 29.400,176.600 29.200,175.800 29.200 C 175.000 29.200,174.800 29.000,174.800 28.200 C 174.800 27.400,174.600 27.200,173.800 27.200 C 173.000 27.200,172.800 27.000,172.800 26.200 C 172.800 25.400,172.600 25.200,171.800 25.200 C 171.000 25.200,170.800 25.000,170.800 24.200 C 170.800 23.400,170.600 23.200,169.800 23.200 C 169.000 23.200,168.800 23.000,168.800 22.200 C 168.800 21.400,168.600 21.200,167.800 21.200 C 167.000 21.200,166.800 21.000,166.800 20.200 L 166.800 19.200 160.000 19.200 L 153.200 19.200 153.200 20.200 C 153.200 20.992,152.998 21.200,152.228 21.200 C 151.524 21.200,151.220 21.449,151.128 22.100 C 151.046 22.678,150.678 23.046,150.100 23.128 C 149.449 23.220,149.200 23.524,149.200 24.228 C 149.200 24.998,148.992 25.200,148.200 25.200 C 147.400 25.200,147.200 25.400,147.200 26.200 C 147.200 27.000,147.000 27.200,146.200 27.200 C 145.400 27.200,145.200 27.400,145.200 28.200 C 145.200 29.000,145.000 29.200,144.200 29.200 C 143.400 29.200,143.200 29.400,143.200 30.200 C 143.200 31.000,143.000 31.200,142.200 31.200 C 141.400 31.200,141.200 31.400,141.200 32.200 C 141.200 33.044,141.013 33.200,140.000 33.200 C 138.987 33.200,138.800 33.044,138.800 32.200 C 138.800 31.400,138.600 31.200,137.800 31.200 C 137.000 31.200,136.800 31.000,136.800 30.200 C 136.800 29.400,136.600 29.200,135.800 29.200 C 135.000 29.200,134.800 29.000,134.800 28.200 C 134.800 27.400,134.600 27.200,133.800 27.200 C 133.000 27.200,132.800 27.000,132.800 26.200 C 132.800 25.400,132.600 25.200,131.800 25.200 C 131.000 25.200,130.800 25.000,130.800 24.200 C 130.800 23.400,130.600 23.200,129.800 23.200 C 129.000 23.200,128.800 23.000,128.800 22.200 C 128.800 21.400,128.600 21.200,127.800 21.200 C 126.997 21.200,126.800 21.001,126.800 20.190 L 126.800 19.181 120.100 19.290 C 113.494 19.398,113.398 19.413,113.272 20.300 C 113.180 20.951,112.876 21.200,112.172 21.200 C 111.402 21.200,111.200 21.408,111.200 22.200 C 111.200 23.000,111.000 23.200,110.200 23.200 C 109.400 23.200,109.200 23.400,109.200 24.200 C 109.200 25.000,109.000 25.200,108.200 25.200 C 107.400 25.200,107.200 25.400,107.200 26.200 C 107.200 27.000,107.000 27.200,106.200 27.200 C 105.400 27.200,105.200 27.400,105.200 28.200 C 105.200 29.000,105.000 29.200,104.200 29.200 C 103.400 29.200,103.200 29.400,103.200 30.200 C 103.200 31.000,103.000 31.200,102.200 31.200 C 101.400 31.200,101.200 31.400,101.200 32.200 C 101.200 33.044,101.013 33.200,100.000 33.200 C 98.987 33.200,98.800 33.044,98.800 32.200 C 98.800 31.400,98.600 31.200,97.800 31.200 C 97.000 31.200,96.800 31.000,96.800 30.200 C 96.800 29.400,96.600 29.200,95.800 29.200 C 95.000 29.200,94.800 29.000,94.800 28.200 C 94.800 27.400,94.600 27.200,93.800 27.200 C 93.000 27.200,92.800 27.000,92.800 26.200 C 92.800 25.400,92.600 25.200,91.800 25.200 C 91.000 25.200,90.800 25.000,90.800 24.200 C 90.800 23.400,90.600 23.200,89.800 23.200 C 89.000 23.200,88.800 23.000,88.800 22.200 C 88.800 21.400,88.600 21.200,87.800 21.200 C 87.000 21.200,86.800 21.000,86.800 20.200 L 86.800 19.200 80.480 19.200 C 76.098 19.200,74.013 19.347,73.680 19.680 M96.160 58.973 C 100.828 61.420,103.427 60.243,112.439 51.600 C 120.734 43.643,119.408 43.649,127.353 51.541 C 138.843 62.954,140.560 62.952,152.448 51.500 C 160.666 43.583,159.332 43.579,167.385 51.553 C 178.838 62.895,181.112 62.869,192.823 51.263 C 200.544 43.611,199.305 43.581,207.338 51.609 C 215.565 59.832,218.845 61.223,223.913 58.638 C 225.704 57.724,226.809 56.742,235.428 48.402 C 239.941 44.035,239.368 43.875,247.235 51.706 C 259.304 63.722,260.633 63.440,278.866 45.004 C 279.422 44.442,281.193 45.884,287.200 51.788 C 298.505 62.900,300.274 62.921,311.388 52.084 C 319.354 44.316,318.928 44.639,320.297 45.347 C 320.920 45.669,323.359 47.929,325.715 50.368 L 330.000 54.803 330.000 200.000 L 330.000 345.197 325.716 349.632 C 323.359 352.071,320.884 354.299,320.216 354.584 L 319.000 355.101 312.000 348.198 C 303.720 340.033,303.417 339.843,299.030 340.085 C 294.870 340.315,294.262 340.728,286.800 348.410 C 279.088 356.348,280.315 356.347,272.325 348.423 C 260.120 336.321,259.699 336.376,243.482 352.141 C 239.768 355.751,240.108 355.866,232.666 348.507 C 224.640 340.570,223.522 339.864,219.266 340.058 C 215.254 340.241,214.048 341.065,207.000 348.444 C 203.735 351.861,201.298 354.075,200.452 354.391 L 199.103 354.894 192.852 348.707 C 182.353 338.316,178.752 337.702,171.111 345.000 C 169.729 346.320,166.860 349.065,164.735 351.100 C 159.654 355.967,160.340 356.118,152.682 348.444 C 141.760 337.498,139.146 337.247,129.874 346.248 C 119.112 356.696,121.050 356.462,112.791 348.317 C 101.194 336.881,99.585 336.919,87.172 348.924 C 79.792 356.061,80.596 355.991,74.700 350.021 L 70.400 345.668 70.400 200.208 C 70.400 91.945,70.517 54.524,70.857 53.874 C 71.788 52.093,78.893 45.245,79.957 45.102 C 80.842 44.984,82.002 45.949,87.600 51.454 C 91.637 55.425,94.961 58.345,96.160 58.973 M265.812 118.269 C 262.746 119.139,259.193 122.585,190.937 190.888 C 117.236 264.641,119.233 262.548,118.570 266.699 C 117.490 273.449,126.934 279.247,133.486 275.859 C 134.836 275.161,273.371 136.852,276.203 133.375 C 281.949 126.321,274.680 115.755,265.812 118.269 M147.200 120.248 C 140.223 121.121,131.495 125.656,126.468 131.020 C 123.466 134.223,120.000 139.178,120.000 140.266 C 120.000 140.456,119.661 141.245,119.246 142.018 C 118.449 143.506,117.472 147.494,116.727 152.300 C 116.111 156.274,117.435 164.693,119.213 168.112 C 119.646 168.944,120.000 169.834,120.000 170.091 C 120.000 170.539,120.706 171.699,123.349 175.600 C 125.275 178.443,128.903 181.899,131.954 183.800 C 132.308 184.020,133.137 184.560,133.798 185.000 C 140.128 189.214,151.717 190.833,160.000 188.660 C 165.088 187.325,167.912 186.012,172.399 182.894 C 177.090 179.634,182.768 172.112,184.395 167.000 C 184.675 166.120,185.057 165.206,185.244 164.969 C 186.781 163.018,186.771 146.574,185.231 144.615 C 185.051 144.387,184.675 143.480,184.395 142.600 C 179.940 128.593,162.804 118.295,147.200 120.248 M158.200 141.507 C 169.710 147.489,169.638 162.868,158.073 168.811 C 151.174 172.356,140.711 168.601,138.149 161.661 C 137.771 160.637,137.269 159.548,137.032 159.240 C 136.795 158.931,136.609 157.131,136.618 155.240 C 136.669 144.120,148.610 136.522,158.200 141.507 M236.800 210.261 C 224.547 212.609,212.641 223.503,209.765 235.000 C 209.435 236.320,208.997 238.030,208.792 238.800 C 208.309 240.614,208.309 248.988,208.792 250.800 C 208.998 251.570,209.444 253.311,209.784 254.669 C 210.332 256.860,211.756 260.301,212.817 262.000 C 213.023 262.330,213.571 263.302,214.035 264.161 C 216.120 268.020,223.214 274.066,228.600 276.573 C 250.133 286.597,275.754 272.270,278.015 248.942 C 278.472 244.222,277.988 237.118,277.089 235.359 C 276.763 234.722,276.366 233.595,276.206 232.854 C 274.820 226.420,266.651 217.342,258.800 213.511 C 252.797 210.582,242.820 209.108,236.800 210.261 M248.200 230.053 C 256.231 232.059,260.938 243.237,257.000 250.950 C 252.347 260.063,240.088 262.323,233.023 255.371 C 221.323 243.856,232.019 226.012,248.200 230.053 " stroke="none" fill="#3cb4fc" fill-rule="evenodd"></path><path id="path1" d="M79.957 45.102 C 78.893 45.245,71.788 52.093,70.857 53.874 C 70.517 54.524,70.400 91.945,70.400 200.208 L 70.400 345.668 74.700 350.021 C 80.596 355.991,79.792 356.061,87.172 348.924 C 99.585 336.919,101.194 336.881,112.791 348.317 C 121.050 356.462,119.112 356.696,129.874 346.248 C 139.146 337.247,141.760 337.498,152.682 348.444 C 160.340 356.118,159.654 355.967,164.735 351.100 C 166.860 349.065,169.729 346.320,171.111 345.000 C 178.752 337.702,182.353 338.316,192.852 348.707 L 199.103 354.894 200.452 354.391 C 201.298 354.075,203.735 351.861,207.000 348.444 C 214.048 341.065,215.254 340.241,219.266 340.058 C 223.522 339.864,224.640 340.570,232.666 348.507 C 240.108 355.866,239.768 355.751,243.482 352.141 C 259.699 336.376,260.120 336.321,272.325 348.423 C 280.315 356.347,279.088 356.348,286.800 348.410 C 294.262 340.728,294.870 340.315,299.030 340.085 C 303.417 339.843,303.720 340.033,312.000 348.198 L 319.000 355.101 320.216 354.584 C 320.884 354.299,323.359 352.071,325.716 349.632 L 330.000 345.197 330.000 200.000 L 330.000 54.803 325.715 50.368 C 323.359 47.929,320.920 45.669,320.297 45.347 C 318.928 44.639,319.354 44.316,311.388 52.084 C 300.274 62.921,298.505 62.900,287.200 51.788 C 281.193 45.884,279.422 44.442,278.866 45.004 C 260.633 63.440,259.304 63.722,247.235 51.706 C 239.368 43.875,239.941 44.035,235.428 48.402 C 226.809 56.742,225.704 57.724,223.913 58.638 C 218.845 61.223,215.565 59.832,207.338 51.609 C 199.305 43.581,200.544 43.611,192.823 51.263 C 181.112 62.869,178.838 62.895,167.385 51.553 C 159.332 43.579,160.666 43.583,152.448 51.500 C 140.560 62.952,138.843 62.954,127.353 51.541 C 119.408 43.649,120.734 43.643,112.439 51.600 C 100.620 62.936,99.265 62.928,87.600 51.454 C 82.002 45.949,80.842 44.984,79.957 45.102 M273.654 119.599 C 278.838 122.737,279.954 128.769,276.203 133.375 C 273.371 136.852,134.836 275.161,133.486 275.859 C 124.958 280.269,115.641 271.531,119.847 263.067 C 121.217 260.310,259.826 121.442,263.012 119.634 C 266.739 117.519,270.199 117.508,273.654 119.599 M161.000 121.429 C 172.137 124.693,181.352 133.032,184.395 142.600 C 184.675 143.480,185.051 144.387,185.231 144.615 C 186.771 146.574,186.781 163.018,185.244 164.969 C 185.057 165.206,184.675 166.120,184.395 167.000 C 182.768 172.112,177.090 179.634,172.399 182.894 C 167.912 186.012,165.088 187.325,160.000 188.660 C 151.717 190.833,140.128 189.214,133.798 185.000 C 133.137 184.560,132.308 184.020,131.954 183.800 C 128.903 181.899,125.275 178.443,123.349 175.600 C 120.706 171.699,120.000 170.539,120.000 170.091 C 120.000 169.834,119.646 168.944,119.213 168.112 C 117.435 164.693,116.111 156.274,116.727 152.300 C 117.472 147.494,118.449 143.506,119.246 142.018 C 119.661 141.245,120.000 140.456,120.000 140.266 C 120.000 140.076,120.675 138.815,121.500 137.465 C 129.948 123.634,146.122 117.068,161.000 121.429 M148.000 140.352 C 141.021 142.647,136.650 148.364,136.618 155.240 C 136.609 157.131,136.795 158.931,137.032 159.240 C 137.269 159.548,137.771 160.637,138.149 161.661 C 140.711 168.601,151.174 172.356,158.073 168.811 C 169.638 162.868,169.710 147.489,158.200 141.507 C 155.664 140.188,150.333 139.585,148.000 140.352 M253.600 211.365 C 264.634 215.310,274.433 224.625,276.206 232.854 C 276.366 233.595,276.763 234.722,277.089 235.359 C 277.988 237.118,278.472 244.222,278.015 248.942 C 275.754 272.270,250.133 286.597,228.600 276.573 C 223.214 274.066,216.120 268.020,214.035 264.161 C 213.571 263.302,213.023 262.330,212.817 262.000 C 211.756 260.301,210.332 256.860,209.784 254.669 C 209.444 253.311,208.998 251.570,208.792 250.800 C 208.309 248.988,208.309 240.614,208.792 238.800 C 208.997 238.030,209.435 236.320,209.765 235.000 C 212.641 223.503,224.547 212.609,236.800 210.261 C 240.151 209.619,250.646 210.309,253.600 211.365 M239.600 229.829 C 225.251 233.043,224.320 253.911,238.317 258.573 C 255.223 264.203,266.231 241.940,251.600 231.711 C 248.587 229.605,243.890 228.868,239.600 229.829 M342.800 361.192 C 342.800 361.408,342.368 361.693,341.840 361.826 C 340.648 362.125,338.299 364.978,338.477 365.911 C 338.586 366.480,339.148 366.620,341.704 366.717 L 344.800 366.834 344.800 363.817 C 344.800 360.866,344.778 360.800,343.800 360.800 C 343.250 360.800,342.800 360.977,342.800 361.192 M218.800 365.655 C 218.800 366.648,218.952 366.800,219.945 366.800 C 221.451 366.800,221.293 364.988,219.761 364.695 C 218.927 364.535,218.800 364.663,218.800 365.655 M298.533 365.031 C 298.186 365.934,298.703 366.800,299.587 366.800 C 300.729 366.800,300.719 364.977,299.576 364.678 C 299.071 364.546,298.666 364.683,298.533 365.031 M98.800 365.800 C 98.800 366.644,98.987 366.800,100.000 366.800 C 100.660 366.800,101.200 366.635,101.200 366.433 C 101.200 366.231,101.309 365.781,101.443 365.433 C 101.637 364.928,101.394 364.800,100.243 364.800 C 98.970 364.800,98.800 364.918,98.800 365.800 M138.800 365.800 C 138.800 366.644,138.987 366.800,140.000 366.800 C 141.013 366.800,141.200 366.644,141.200 365.800 C 141.200 364.956,141.013 364.800,140.000 364.800 C 138.987 364.800,138.800 364.956,138.800 365.800 M178.800 365.800 C 178.800 366.644,178.987 366.800,180.000 366.800 C 181.013 366.800,181.200 366.644,181.200 365.800 C 181.200 364.956,181.013 364.800,180.000 364.800 C 178.987 364.800,178.800 364.956,178.800 365.800 M258.557 365.433 C 258.691 365.781,258.800 366.243,258.800 366.461 C 258.800 367.303,260.601 366.592,260.728 365.700 C 260.837 364.929,260.674 364.800,259.585 364.800 C 258.591 364.800,258.367 364.938,258.557 365.433 " stroke="none" fill="#fcfcfc" fill-rule="evenodd"></path></g></svg>