<svg id="svg" xmlns="http://www.w3.org/2000/svg" xmlns:xlink="http://www.w3.org/1999/xlink" width="400" height="400" viewBox="0, 0, 400,400"><g id="svgg"><path id="path0" d="M73.680 19.680 C 73.416 19.944,73.200 20.394,73.200 20.680 C 73.200 20.968,72.754 21.200,72.200 21.200 C 71.400 21.200,71.200 21.400,71.200 22.200 C 71.200 23.000,71.000 23.200,70.200 23.200 C 69.400 23.200,69.200 23.400,69.200 24.200 C 69.200 25.000,69.000 25.200,68.200 25.200 C 67.400 25.200,67.200 25.400,67.200 26.200 C 67.200 27.000,67.000 27.200,66.200 27.200 C 65.400 27.200,65.200 27.400,65.200 28.200 C 65.200 29.000,65.000 29.200,64.200 29.200 C 63.400 29.200,63.200 29.400,63.200 30.200 C 63.200 31.000,63.000 31.200,62.200 31.200 C 61.400 31.200,61.200 31.400,61.200 32.200 C 61.200 33.000,61.000 33.200,60.200 33.200 C 59.400 33.200,59.200 33.400,59.200 34.200 C 59.200 35.000,59.000 35.200,58.200 35.200 C 57.400 35.200,57.200 35.400,57.200 36.200 C 57.200 37.000,57.000 37.200,56.200 37.200 C 55.400 37.200,55.200 37.400,55.200 38.200 C 55.200 39.000,55.000 39.200,54.200 39.200 C 53.400 39.200,53.200 39.400,53.200 40.200 C 53.200 41.000,53.000 41.200,52.200 41.200 C 51.446 41.200,51.200 41.410,51.200 42.054 C 51.200 42.524,50.750 43.325,50.200 43.835 L 49.200 44.762 49.200 200.573 L 49.200 356.385 50.200 356.636 C 50.918 356.816,51.200 357.157,51.200 357.843 C 51.200 358.597,51.412 358.800,52.200 358.800 C 53.000 358.800,53.200 359.000,53.200 359.800 C 53.200 360.600,53.400 360.800,54.200 360.800 C 55.000 360.800,55.200 361.000,55.200 361.800 C 55.200 362.600,55.400 362.800,56.200 362.800 C 57.000 362.800,57.200 363.000,57.200 363.800 C 57.200 364.600,57.400 364.800,58.200 364.800 C 59.000 364.800,59.200 365.000,59.200 365.800 C 59.200 366.600,59.400 366.800,60.200 366.800 C 61.000 366.800,61.200 367.000,61.200 367.800 C 61.200 368.600,61.400 368.800,62.200 368.800 C 63.000 368.800,63.200 369.000,63.200 369.800 C 63.200 370.600,63.400 370.800,64.200 370.800 C 65.000 370.800,65.200 371.000,65.200 371.800 C 65.200 372.600,65.400 372.800,66.200 372.800 C 67.000 372.800,67.200 373.000,67.200 373.800 C 67.200 374.600,67.400 374.800,68.200 374.800 C 69.000 374.800,69.200 375.000,69.200 375.800 C 69.200 376.600,69.400 376.800,70.200 376.800 C 71.000 376.800,71.200 377.000,71.200 377.800 C 71.200 378.600,71.400 378.800,72.200 378.800 C 73.000 378.800,73.200 379.000,73.200 379.800 L 73.200 380.800 80.019 380.800 L 86.838 380.800 88.719 378.831 C 92.309 375.073,92.800 374.447,92.800 373.626 C 92.800 373.012,93.056 372.800,93.800 372.800 C 94.600 372.800,94.800 372.600,94.800 371.800 C 94.800 371.000,95.000 370.800,95.800 370.800 C 96.600 370.800,96.800 370.600,96.800 369.800 C 96.800 368.987,96.997 368.800,97.852 368.800 C 98.882 368.800,98.898 368.760,98.637 366.798 C 98.390 364.936,98.441 364.764,99.360 364.345 C 101.131 363.538,102.627 364.904,101.663 366.448 C 100.846 367.757,101.084 368.800,102.200 368.800 C 103.000 368.800,103.200 369.000,103.200 369.800 C 103.200 370.600,103.400 370.800,104.200 370.800 C 105.000 370.800,105.200 371.000,105.200 371.800 C 105.200 372.600,105.400 372.800,106.200 372.800 C 107.000 372.800,107.200 373.000,107.200 373.800 C 107.200 374.600,107.400 374.800,108.200 374.800 C 109.000 374.800,109.200 375.000,109.200 375.800 C 109.200 376.600,109.400 376.800,110.200 376.800 C 111.000 376.800,111.200 377.000,111.200 377.800 C 111.200 378.588,111.403 378.800,112.157 378.800 C 112.847 378.800,113.184 379.082,113.368 379.816 L 113.623 380.832 119.793 380.779 C 125.793 380.728,126.850 380.516,126.666 379.400 C 126.630 379.180,127.095 378.943,127.700 378.873 C 128.564 378.774,128.800 378.538,128.800 377.773 C 128.800 377.002,129.007 376.800,129.800 376.800 C 130.600 376.800,130.800 376.600,130.800 375.800 C 130.800 375.000,131.000 374.800,131.800 374.800 C 132.600 374.800,132.800 374.600,132.800 373.800 C 132.800 373.000,133.000 372.800,133.800 372.800 C 134.600 372.800,134.800 372.600,134.800 371.800 C 134.800 371.000,135.000 370.800,135.800 370.800 C 136.600 370.800,136.800 370.600,136.800 369.800 C 136.800 369.000,137.000 368.800,137.800 368.800 C 138.916 368.800,139.092 368.019,138.391 366.177 C 137.850 364.752,138.538 363.919,140.126 364.080 C 141.661 364.234,142.382 365.296,141.697 366.393 C 140.848 367.752,141.067 368.800,142.200 368.800 C 143.000 368.800,143.200 369.000,143.200 369.800 C 143.200 370.600,143.400 370.800,144.200 370.800 C 145.000 370.800,145.200 371.000,145.200 371.800 C 145.200 372.600,145.400 372.800,146.200 372.800 C 147.000 372.800,147.200 373.000,147.200 373.800 C 147.200 374.600,147.400 374.800,148.200 374.800 C 149.000 374.800,149.200 375.000,149.200 375.800 C 149.200 376.600,149.400 376.800,150.200 376.800 C 151.000 376.800,151.200 377.000,151.200 377.800 C 151.200 378.572,151.406 378.800,152.105 378.800 C 152.660 378.800,153.163 379.148,153.405 379.700 C 154.030 381.125,164.671 381.321,164.871 379.911 C 164.982 379.130,165.271 378.983,166.900 378.878 C 168.615 378.768,168.800 378.661,168.800 377.778 C 168.800 377.001,169.006 376.800,169.800 376.800 C 170.600 376.800,170.800 376.600,170.800 375.800 C 170.800 375.000,171.000 374.800,171.800 374.800 C 172.600 374.800,172.800 374.600,172.800 373.800 C 172.800 373.000,173.000 372.800,173.800 372.800 C 174.600 372.800,174.800 372.600,174.800 371.800 C 174.800 371.000,175.000 370.800,175.800 370.800 C 176.600 370.800,176.800 370.600,176.800 369.800 C 176.800 369.000,177.000 368.800,177.800 368.800 C 178.933 368.800,179.152 367.752,178.303 366.393 C 177.323 364.824,179.332 363.400,181.152 364.374 C 181.827 364.736,181.889 364.991,181.572 366.097 C 180.958 368.238,181.089 368.800,182.200 368.800 C 183.000 368.800,183.200 369.000,183.200 369.800 C 183.200 370.600,183.400 370.800,184.200 370.800 C 185.000 370.800,185.200 371.000,185.200 371.800 C 185.200 372.600,185.400 372.800,186.200 372.800 C 187.000 372.800,187.200 373.000,187.200 373.800 C 187.200 374.600,187.400 374.800,188.200 374.800 C 189.000 374.800,189.200 375.000,189.200 375.800 C 189.200 376.600,189.400 376.800,190.200 376.800 C 191.000 376.800,191.200 377.000,191.200 377.800 C 191.200 378.600,191.400 378.800,192.200 378.800 C 192.750 378.800,193.222 378.980,193.250 379.200 C 193.278 379.420,193.322 379.825,193.350 380.100 C 193.463 381.235,204.661 380.975,205.825 379.811 C 206.381 379.255,207.278 378.800,207.818 378.800 C 208.591 378.800,208.800 378.593,208.800 377.828 C 208.800 377.124,209.049 376.820,209.700 376.728 C 210.278 376.646,210.646 376.278,210.728 375.700 C 210.820 375.049,211.124 374.800,211.828 374.800 C 212.598 374.800,212.800 374.592,212.800 373.800 C 212.800 373.000,213.000 372.800,213.800 372.800 C 214.600 372.800,214.800 372.600,214.800 371.800 C 214.800 371.000,215.000 370.800,215.800 370.800 C 216.600 370.800,216.800 370.600,216.800 369.800 C 216.800 369.000,217.000 368.800,217.800 368.800 C 218.916 368.800,219.154 367.757,218.337 366.448 C 217.338 364.847,218.830 363.584,220.770 364.387 C 221.832 364.828,221.896 364.968,221.563 366.130 C 220.959 368.237,221.093 368.800,222.200 368.800 C 223.000 368.800,223.200 369.000,223.200 369.800 C 223.200 370.600,223.400 370.800,224.200 370.800 C 225.000 370.800,225.200 371.000,225.200 371.800 C 225.200 372.600,225.400 372.800,226.200 372.800 C 227.000 372.800,227.200 373.000,227.200 373.800 C 227.200 374.600,227.400 374.800,228.200 374.800 C 229.000 374.800,229.200 375.000,229.200 375.800 C 229.200 376.600,229.400 376.800,230.200 376.800 C 231.000 376.800,231.200 377.000,231.200 377.800 C 231.200 378.600,231.400 378.800,232.200 378.800 C 232.750 378.800,233.222 378.980,233.250 379.200 C 233.278 379.420,233.322 379.825,233.350 380.100 C 233.457 381.175,244.718 380.990,244.871 379.911 C 244.982 379.130,245.271 378.983,246.900 378.878 C 248.615 378.768,248.800 378.661,248.800 377.778 C 248.800 377.001,249.006 376.800,249.800 376.800 C 250.600 376.800,250.800 376.600,250.800 375.800 C 250.800 375.000,251.000 374.800,251.800 374.800 C 252.593 374.800,252.800 374.598,252.800 373.827 C 252.800 373.062,253.036 372.826,253.900 372.727 C 254.505 372.657,255.023 372.375,255.050 372.100 C 255.078 371.825,255.123 371.433,255.150 371.228 C 255.178 371.023,255.605 370.798,256.100 370.728 C 256.595 370.658,257.022 370.375,257.050 370.100 C 257.078 369.825,257.123 369.433,257.150 369.228 C 257.178 369.023,257.589 368.798,258.064 368.728 C 259.104 368.574,259.402 367.236,258.537 366.604 C 257.633 365.942,258.000 364.228,259.079 364.075 C 260.953 363.808,261.648 364.645,261.360 366.820 C 261.103 368.758,261.119 368.800,262.148 368.800 C 263.003 368.800,263.200 368.987,263.200 369.800 C 263.200 370.600,263.400 370.800,264.200 370.800 C 265.000 370.800,265.200 371.000,265.200 371.800 C 265.200 372.600,265.400 372.800,266.200 372.800 C 267.000 372.800,267.200 373.000,267.200 373.800 C 267.200 374.600,267.400 374.800,268.200 374.800 C 269.000 374.800,269.200 375.000,269.200 375.800 C 269.200 376.600,269.400 376.800,270.200 376.800 C 271.000 376.800,271.200 377.000,271.200 377.800 C 271.200 378.600,271.400 378.800,272.200 378.800 C 272.914 378.800,273.200 379.016,273.200 379.557 C 273.200 381.292,284.681 381.517,285.600 379.800 C 286.086 378.892,287.222 378.508,288.600 378.786 C 288.820 378.830,288.871 378.738,288.714 378.581 C 288.245 378.111,289.170 376.800,289.971 376.800 C 290.429 376.800,290.809 376.417,290.964 375.800 C 291.120 375.179,291.499 374.800,291.964 374.800 C 292.407 374.800,292.806 374.432,292.940 373.900 C 293.065 373.405,293.579 372.818,294.083 372.596 C 294.587 372.373,294.975 371.878,294.944 371.496 C 294.911 371.076,295.170 370.800,295.595 370.800 C 296.441 370.800,297.367 369.794,297.028 369.245 C 296.895 369.030,297.284 368.797,297.893 368.727 C 299.066 368.592,299.673 366.800,298.545 366.800 C 297.746 366.800,297.835 364.438,298.647 364.127 C 300.366 363.467,301.408 364.497,301.263 366.711 C 301.131 368.728,301.162 368.800,302.163 368.800 C 303.002 368.800,303.200 368.991,303.200 369.800 C 303.200 370.600,303.400 370.800,304.200 370.800 C 305.000 370.800,305.200 371.000,305.200 371.800 C 305.200 372.600,305.400 372.800,306.200 372.800 C 307.000 372.800,307.200 373.000,307.200 373.800 C 307.200 374.600,307.400 374.800,308.200 374.800 C 309.000 374.800,309.200 375.000,309.200 375.800 C 309.200 376.600,309.400 376.800,310.200 376.800 C 311.000 376.800,311.200 377.000,311.200 377.800 C 311.200 378.600,311.400 378.800,312.200 378.800 C 312.914 378.800,313.200 379.016,313.200 379.557 C 313.200 381.287,324.140 381.497,325.836 379.800 C 326.386 379.250,327.278 378.800,327.818 378.800 C 328.599 378.800,328.800 378.595,328.800 377.800 C 328.800 377.000,329.000 376.800,329.800 376.800 C 330.600 376.800,330.800 376.600,330.800 375.800 C 330.800 375.000,331.000 374.800,331.800 374.800 C 332.600 374.800,332.800 374.600,332.800 373.800 C 332.800 373.000,333.000 372.800,333.800 372.800 C 334.600 372.800,334.800 372.600,334.800 371.800 C 334.800 371.000,335.000 370.800,335.800 370.800 C 336.600 370.800,336.800 370.600,336.800 369.800 C 336.800 369.000,337.000 368.800,337.800 368.800 C 338.600 368.800,338.800 368.600,338.800 367.800 C 338.800 367.250,338.620 366.800,338.400 366.800 C 337.557 366.800,338.054 364.647,339.244 363.145 C 340.830 361.141,342.687 360.345,345.023 360.665 C 346.738 360.900,346.800 360.872,346.800 359.854 C 346.800 358.996,346.986 358.800,347.800 358.800 C 348.592 358.800,348.800 358.598,348.800 357.828 C 348.800 357.124,349.049 356.820,349.700 356.728 L 350.600 356.600 350.600 200.000 L 350.600 43.400 349.700 43.272 C 349.049 43.180,348.800 42.876,348.800 42.172 C 348.800 41.402,348.592 41.200,347.800 41.200 C 347.000 41.200,346.800 41.000,346.800 40.200 C 346.800 39.400,346.600 39.200,345.800 39.200 C 345.000 39.200,344.800 39.000,344.800 38.200 C 344.800 37.400,344.600 37.200,343.800 37.200 C 343.000 37.200,342.800 37.000,342.800 36.200 C 342.800 35.400,342.600 35.200,341.800 35.200 C 341.000 35.200,340.800 35.000,340.800 34.200 C 340.800 33.400,340.600 33.200,339.800 33.200 C 339.000 33.200,338.800 33.000,338.800 32.200 C 338.800 31.400,338.600 31.200,337.800 31.200 C 337.000 31.200,336.800 31.000,336.800 30.200 C 336.800 29.400,336.600 29.200,335.800 29.200 C 335.000 29.200,334.800 29.000,334.800 28.200 C 334.800 27.400,334.600 27.200,333.800 27.200 C 333.000 27.200,332.800 27.000,332.800 26.200 C 332.800 25.400,332.600 25.200,331.800 25.200 C 331.000 25.200,330.800 25.000,330.800 24.200 C 330.800 23.400,330.600 23.200,329.800 23.200 C 329.000 23.200,328.800 23.000,328.800 22.200 C 328.800 21.408,328.598 21.200,327.828 21.200 C 327.124 21.200,326.820 20.951,326.728 20.300 C 326.602 19.413,326.506 19.398,319.900 19.290 L 313.200 19.181 313.200 20.190 C 313.200 20.993,313.001 21.200,312.228 21.200 C 311.524 21.200,311.220 21.449,311.128 22.100 C 311.047 22.670,310.679 23.046,310.125 23.125 C 309.579 23.202,309.202 23.579,309.125 24.125 C 309.047 24.670,308.670 25.047,308.125 25.125 C 307.579 25.202,307.202 25.579,307.125 26.125 C 307.047 26.670,306.670 27.047,306.125 27.125 C 305.579 27.202,305.202 27.579,305.125 28.125 C 305.046 28.679,304.670 29.047,304.100 29.128 C 303.449 29.220,303.200 29.524,303.200 30.228 C 303.200 30.998,302.992 31.200,302.200 31.200 C 301.400 31.200,301.200 31.400,301.200 32.200 C 301.200 33.209,299.272 33.774,299.150 32.800 C 299.123 32.580,299.078 32.175,299.050 31.900 C 299.022 31.625,298.595 31.342,298.100 31.272 C 297.605 31.202,297.178 30.977,297.150 30.772 C 297.123 30.567,297.078 30.175,297.050 29.900 C 297.022 29.625,296.595 29.342,296.100 29.272 C 295.605 29.202,295.177 28.977,295.150 28.772 C 295.123 28.567,295.078 28.175,295.050 27.900 C 295.022 27.625,294.595 27.342,294.100 27.272 C 293.605 27.202,293.177 26.977,293.150 26.772 C 293.123 26.567,293.078 26.175,293.050 25.900 C 293.022 25.625,292.595 25.342,292.100 25.272 C 291.605 25.202,291.178 24.977,291.150 24.772 C 291.123 24.567,291.078 24.175,291.050 23.900 C 291.022 23.625,290.595 23.342,290.100 23.272 C 289.605 23.202,289.177 22.977,289.150 22.772 C 289.123 22.567,289.078 22.175,289.050 21.900 C 289.022 21.625,288.505 21.343,287.900 21.273 C 287.295 21.204,286.778 20.979,286.750 20.773 C 286.723 20.568,286.678 20.175,286.650 19.900 C 286.544 18.844,273.876 19.226,273.405 20.300 C 273.163 20.852,272.660 21.200,272.105 21.200 C 271.406 21.200,271.200 21.428,271.200 22.200 C 271.200 23.000,271.000 23.200,270.200 23.200 C 269.400 23.200,269.200 23.400,269.200 24.200 C 269.200 25.000,269.000 25.200,268.200 25.200 C 267.400 25.200,267.200 25.400,267.200 26.200 C 267.200 27.000,267.000 27.200,266.200 27.200 C 265.400 27.200,265.200 27.400,265.200 28.200 C 265.200 29.000,265.000 29.200,264.200 29.200 C 263.400 29.200,263.200 29.400,263.200 30.200 C 263.200 31.000,263.000 31.200,262.200 31.200 C 261.400 31.200,261.200 31.400,261.200 32.200 C 261.200 33.575,259.322 33.665,259.128 32.300 C 259.047 31.730,258.679 31.354,258.125 31.275 C 257.579 31.198,257.202 30.821,257.125 30.275 C 257.047 29.730,256.670 29.353,256.125 29.275 C 255.579 29.198,255.202 28.821,255.125 28.275 C 255.037 27.657,254.677 27.363,253.900 27.273 C 253.036 27.174,252.800 26.938,252.800 26.173 C 252.800 25.402,252.593 25.200,251.800 25.200 C 251.000 25.200,250.800 25.000,250.800 24.200 C 250.800 23.400,250.600 23.200,249.800 23.200 C 249.000 23.200,248.800 23.000,248.800 22.200 C 248.800 21.428,248.594 21.200,247.895 21.200 C 247.340 21.200,246.837 20.852,246.595 20.300 C 245.978 18.893,234.022 18.893,233.405 20.300 C 233.163 20.852,232.660 21.200,232.105 21.200 C 231.406 21.200,231.200 21.428,231.200 22.200 C 231.200 23.000,231.000 23.200,230.200 23.200 C 229.400 23.200,229.200 23.400,229.200 24.200 C 229.200 25.000,229.000 25.200,228.200 25.200 C 227.400 25.200,227.200 25.400,227.200 26.200 C 227.200 27.000,227.000 27.200,226.200 27.200 C 225.400 27.200,225.200 27.400,225.200 28.200 C 225.200 29.000,225.000 29.200,224.200 29.200 C 223.400 29.200,223.200 29.400,223.200 30.200 C 223.200 31.000,223.000 31.200,222.200 31.200 C 221.400 31.200,221.200 31.400,221.200 32.200 C 221.200 33.044,221.013 33.200,220.000 33.200 C 218.987 33.200,218.800 33.044,218.800 32.200 C 218.800 31.400,218.600 31.200,217.800 31.200 C 217.000 31.200,216.800 31.000,216.800 30.200 C 216.800 29.400,216.600 29.200,215.800 29.200 C 215.000 29.200,214.800 29.000,214.800 28.200 C 214.800 27.400,214.600 27.200,213.800 27.200 C 213.000 27.200,212.800 27.000,212.800 26.200 C 212.800 25.400,212.600 25.200,211.800 25.200 C 211.000 25.200,210.800 25.000,210.800 24.200 C 210.800 23.400,210.600 23.200,209.800 23.200 C 209.000 23.200,208.800 23.000,208.800 22.200 C 208.800 21.412,208.597 21.200,207.843 21.200 C 207.154 21.200,206.816 20.918,206.633 20.190 L 206.380 19.180 199.890 19.290 C 193.502 19.398,193.398 19.414,193.272 20.300 C 193.180 20.951,192.876 21.200,192.172 21.200 C 191.402 21.200,191.200 21.408,191.200 22.200 C 191.200 23.000,191.000 23.200,190.200 23.200 C 189.400 23.200,189.200 23.400,189.200 24.200 C 189.200 25.000,189.000 25.200,188.200 25.200 C 187.400 25.200,187.200 25.400,187.200 26.200 C 187.200 27.000,187.000 27.200,186.200 27.200 C 185.400 27.200,185.200 27.400,185.200 28.200 C 185.200 29.000,185.000 29.200,184.200 29.200 C 183.400 29.200,183.200 29.400,183.200 30.200 C 183.200 31.000,183.000 31.200,182.200 31.200 C 181.400 31.200,181.200 31.400,181.200 32.200 C 181.200 33.044,181.013 33.200,180.000 33.200 C 178.987 33.200,178.800 33.044,178.800 32.200 C 178.800 31.400,178.600 31.200,177.800 31.200 C 177.000 31.200,176.800 31.000,176.800 30.200 C 176.800 29.400,176.600 29.200,175.800 29.200 C 175.000 29.200,174.800 29.000,174.800 28.200 C 174.800 27.400,174.600 27.200,173.800 27.200 C 173.000 27.200,172.800 27.000,172.800 26.200 C 172.800 25.400,172.600 25.200,171.800 25.200 C 171.000 25.200,170.800 25.000,170.800 24.200 C 170.800 23.400,170.600 23.200,169.800 23.200 C 169.000 23.200,168.800 23.000,168.800 22.200 C 168.800 21.400,168.600 21.200,167.800 21.200 C 167.000 21.200,166.800 21.000,166.800 20.200 L 166.800 19.200 160.000 19.200 L 153.200 19.200 153.200 20.200 C 153.200 20.992,152.998 21.200,152.228 21.200 C 151.524 21.200,151.220 21.449,151.128 22.100 C 151.046 22.678,150.678 23.046,150.100 23.128 C 149.449 23.220,149.200 23.524,149.200 24.228 C 149.200 24.998,148.992 25.200,148.200 25.200 C 147.400 25.200,147.200 25.400,147.200 26.200 C 147.200 27.000,147.000 27.200,146.200 27.200 C 145.400 27.200,145.200 27.400,145.200 28.200 C 145.200 29.000,145.000 29.200,144.200 29.200 C 143.400 29.200,143.200 29.400,143.200 30.200 C 143.200 31.000,143.000 31.200,142.200 31.200 C 141.400 31.200,141.200 31.400,141.200 32.200 C 141.200 33.044,141.013 33.200,140.000 33.200 C 138.987 33.200,138.800 33.044,138.800 32.200 C 138.800 31.400,138.600 31.200,137.800 31.200 C 137.000 31.200,136.800 31.000,136.800 30.200 C 136.800 29.400,136.600 29.200,135.800 29.200 C 135.000 29.200,134.800 29.000,134.800 28.200 C 134.800 27.400,134.600 27.200,133.800 27.200 C 133.000 27.200,132.800 27.000,132.800 26.200 C 132.800 25.400,132.600 25.200,131.800 25.200 C 131.000 25.200,130.800 25.000,130.800 24.200 C 130.800 23.400,130.600 23.200,129.800 23.200 C 129.000 23.200,128.800 23.000,128.800 22.200 C 128.800 21.400,128.600 21.200,127.800 21.200 C 126.997 21.200,126.800 21.001,126.800 20.190 L 126.800 19.181 120.100 19.290 C 113.494 19.398,113.398 19.413,113.272 20.300 C 113.180 20.951,112.876 21.200,112.172 21.200 C 111.409 21.200,111.200 21.409,111.200 22.172 C 111.200 22.876,110.951 23.180,110.300 23.272 C 109.722 23.354,109.354 23.722,109.272 24.300 C 109.180 24.951,108.876 25.200,108.172 25.200 C 107.402 25.200,107.200 25.408,107.200 26.200 C 107.200 27.000,107.000 27.200,106.200 27.200 C 105.400 27.200,105.200 27.400,105.200 28.200 C 105.200 29.000,105.000 29.200,104.200 29.200 C 103.400 29.200,103.200 29.400,103.200 30.200 C 103.200 31.000,103.000 31.200,102.200 31.200 C 101.400 31.200,101.200 31.400,101.200 32.200 C 101.200 33.044,101.013 33.200,100.000 33.200 C 98.987 33.200,98.800 33.044,98.800 32.200 C 98.800 31.400,98.600 31.200,97.800 31.200 C 97.000 31.200,96.800 31.000,96.800 30.200 C 96.800 29.400,96.600 29.200,95.800 29.200 C 95.000 29.200,94.800 29.000,94.800 28.200 C 94.800 27.400,94.600 27.200,93.800 27.200 C 93.000 27.200,92.800 27.000,92.800 26.200 C 92.800 25.400,92.600 25.200,91.800 25.200 C 91.000 25.200,90.800 25.000,90.800 24.200 C 90.800 23.400,90.600 23.200,89.800 23.200 C 89.000 23.200,88.800 23.000,88.800 22.200 C 88.800 21.400,88.600 21.200,87.800 21.200 C 87.000 21.200,86.800 21.000,86.800 20.200 L 86.800 19.200 80.480 19.200 C 76.098 19.200,74.013 19.347,73.680 19.680 M95.594 58.000 C 95.893 58.000,96.482 58.312,96.903 58.693 C 97.895 59.591,101.968 59.657,103.005 58.793 C 103.396 58.467,104.120 58.020,104.613 57.800 C 105.107 57.580,108.545 54.475,112.254 50.900 C 120.776 42.685,119.406 42.700,127.515 50.740 C 135.958 59.113,140.226 61.291,143.097 58.693 C 143.518 58.312,144.074 58.000,144.331 58.000 C 144.589 58.000,145.125 57.685,145.523 57.300 C 145.921 56.915,149.055 53.855,152.487 50.500 C 160.484 42.684,159.269 42.677,167.200 50.589 C 175.656 59.026,178.928 60.634,183.096 58.400 C 183.916 57.960,184.773 57.600,184.998 57.600 C 185.224 57.600,188.446 54.559,192.157 50.843 C 200.421 42.568,199.096 42.570,207.348 50.827 C 218.505 61.990,220.391 61.986,232.065 50.773 C 235.828 47.158,239.064 44.218,239.254 44.240 C 239.444 44.262,239.872 44.307,240.205 44.340 C 240.538 44.373,243.613 47.193,247.039 50.607 C 250.465 54.021,253.838 57.103,254.534 57.456 C 255.230 57.808,256.090 58.350,256.445 58.661 C 259.158 61.032,263.165 59.321,269.697 53.000 C 272.198 50.580,275.344 47.552,276.688 46.272 L 279.131 43.944 280.444 44.623 C 281.165 44.996,284.513 48.057,287.882 51.425 C 291.251 54.793,294.411 57.672,294.904 57.822 C 295.397 57.972,296.131 58.385,296.535 58.741 C 297.697 59.763,301.546 59.615,302.972 58.493 C 303.597 58.002,304.321 57.600,304.582 57.600 C 304.842 57.600,305.421 57.195,305.868 56.700 C 306.733 55.741,315.783 46.970,317.876 45.061 L 319.125 43.922 320.962 44.999 C 321.973 45.591,322.800 46.300,322.800 46.574 C 322.800 46.848,323.250 47.277,323.800 47.527 C 324.350 47.778,324.800 48.228,324.800 48.527 C 324.800 48.827,325.250 49.277,325.800 49.527 C 326.350 49.778,326.800 50.228,326.800 50.527 C 326.800 50.827,327.250 51.277,327.800 51.527 C 328.350 51.778,328.800 52.167,328.800 52.391 C 328.800 52.616,329.160 53.160,329.600 53.600 C 330.397 54.397,330.400 54.933,330.400 199.979 L 330.400 345.559 329.400 346.638 C 328.850 347.231,328.400 347.858,328.400 348.031 C 328.400 348.205,328.049 348.457,327.620 348.594 C 327.192 348.730,326.733 349.183,326.600 349.600 C 326.467 350.017,326.017 350.467,325.600 350.600 C 325.183 350.733,324.733 351.183,324.600 351.600 C 324.467 352.017,324.017 352.467,323.600 352.600 C 323.183 352.733,322.742 353.147,322.621 353.520 C 322.500 353.894,321.646 354.609,320.723 355.109 L 319.046 356.018 311.823 348.952 C 307.850 345.066,304.273 341.598,303.873 341.244 C 302.581 340.104,296.507 340.343,294.852 341.600 C 293.156 342.888,284.400 351.632,284.400 352.038 C 284.400 352.207,284.049 352.457,283.620 352.594 C 283.192 352.730,282.743 353.147,282.623 353.520 C 282.503 353.894,281.623 354.580,280.666 355.045 L 278.927 355.890 272.964 349.913 C 261.150 338.073,259.049 337.751,250.352 346.448 C 249.058 347.742,247.899 348.800,247.776 348.800 C 247.653 348.800,246.258 350.112,244.676 351.716 C 242.136 354.292,240.300 355.600,239.223 355.600 C 239.036 355.600,235.884 352.630,232.218 349.000 C 228.552 345.370,225.383 342.400,225.176 342.400 C 224.969 342.400,224.395 341.995,223.900 341.500 C 222.447 340.047,217.062 340.172,215.246 341.700 C 214.527 342.305,213.781 342.800,213.589 342.800 C 213.160 342.800,210.400 345.600,210.400 346.034 C 210.400 346.206,210.049 346.457,209.620 346.594 C 209.192 346.730,208.733 347.183,208.600 347.600 C 208.467 348.017,208.036 348.462,207.640 348.587 C 207.245 348.713,206.718 349.262,206.469 349.808 C 206.221 350.353,205.764 350.800,205.455 350.800 C 205.146 350.800,204.796 351.173,204.676 351.630 C 204.557 352.086,204.103 352.553,203.667 352.667 C 203.231 352.781,202.784 353.220,202.673 353.642 C 202.481 354.378,199.892 355.773,199.187 355.521 C 199.000 355.454,195.883 352.475,192.260 348.900 C 188.637 345.325,185.410 342.400,185.090 342.400 C 184.770 342.400,184.050 342.040,183.491 341.600 C 182.358 340.709,177.870 340.439,177.380 341.233 C 177.232 341.471,176.367 342.000,175.456 342.409 C 174.447 342.861,171.480 345.420,167.866 348.956 C 164.001 352.736,161.450 354.919,160.552 355.216 L 159.172 355.671 152.886 349.399 C 149.429 345.949,146.060 342.852,145.400 342.515 C 144.740 342.179,143.875 341.618,143.478 341.269 C 142.290 340.227,137.607 340.393,136.482 341.518 C 135.997 342.003,135.420 342.400,135.200 342.400 C 134.843 342.400,132.908 344.200,123.695 353.100 C 122.272 354.475,120.960 355.600,120.780 355.600 C 119.510 355.600,117.592 354.055,112.374 348.826 C 109.099 345.545,106.086 342.754,105.680 342.625 C 105.274 342.496,104.525 342.004,104.018 341.530 C 102.636 340.244,97.769 340.231,96.490 341.510 C 96.001 341.999,95.438 342.400,95.241 342.400 C 95.043 342.400,93.995 343.255,92.913 344.300 C 83.461 353.426,81.133 355.600,80.817 355.600 C 79.111 355.600,70.877 348.108,69.975 345.734 C 69.303 343.968,69.484 55.441,70.158 53.887 C 70.933 52.099,78.742 44.498,80.000 44.307 C 80.840 44.179,82.127 45.266,88.025 51.077 C 91.889 54.885,95.295 58.000,95.594 58.000 " stroke="none" fill="#c4a072" fill-rule="evenodd"></path><path id="path1" d="M316.249 48.225 C 314.833 49.641,313.498 50.800,313.284 50.800 C 313.069 50.800,312.796 51.173,312.676 51.630 C 312.557 52.086,312.103 52.553,311.667 52.667 C 311.231 52.781,310.781 53.231,310.667 53.667 C 310.553 54.103,310.092 54.555,309.643 54.673 C 309.194 54.790,308.721 55.218,308.593 55.623 C 308.464 56.028,308.008 56.470,307.580 56.606 C 307.151 56.743,306.800 57.012,306.800 57.206 C 306.800 59.592,297.881 61.480,295.491 59.600 C 294.931 59.160,294.266 58.800,294.013 58.800 C 293.760 58.800,290.734 56.004,287.290 52.586 C 278.936 44.295,280.386 44.226,271.046 53.365 C 267.991 56.354,265.246 58.800,264.946 58.800 C 264.646 58.800,264.400 58.951,264.400 59.136 C 264.400 60.367,257.873 60.892,256.000 59.811 C 255.450 59.494,254.587 59.048,254.083 58.821 C 253.579 58.593,250.350 55.615,246.908 52.204 C 242.594 47.928,240.372 46.000,239.758 46.000 C 238.905 46.000,234.922 49.474,229.785 54.700 C 228.650 55.855,227.557 56.800,227.356 56.800 C 227.156 56.800,226.794 57.118,226.551 57.507 C 225.013 59.969,217.739 61.297,215.681 59.492 C 215.306 59.163,214.612 58.777,214.138 58.632 C 213.664 58.488,210.477 55.587,207.055 52.185 C 199.326 44.501,200.475 44.533,193.200 51.789 C 190.010 54.970,186.770 57.894,186.000 58.286 C 185.230 58.679,184.506 59.124,184.392 59.275 C 183.912 59.910,181.789 60.400,179.523 60.400 C 175.999 60.400,174.061 59.103,167.005 52.019 C 159.470 44.454,160.607 44.468,153.000 51.837 C 145.004 59.582,143.770 60.400,140.077 60.400 C 137.350 60.400,135.200 59.843,135.200 59.136 C 135.200 58.951,134.897 58.800,134.527 58.800 C 134.157 58.800,130.956 55.920,127.412 52.400 C 119.344 44.385,120.694 44.384,112.429 52.415 C 108.815 55.927,105.694 58.800,105.492 58.800 C 105.291 58.800,104.669 59.160,104.109 59.600 C 102.638 60.757,97.362 60.757,95.891 59.600 C 95.331 59.160,94.676 58.800,94.435 58.800 C 94.193 58.800,91.079 55.920,87.513 52.400 C 79.618 44.605,80.441 44.748,74.999 50.229 L 70.800 54.459 70.800 199.829 C 70.800 337.721,70.836 345.239,71.500 345.962 C 75.866 350.716,79.395 354.000,80.136 353.998 C 80.702 353.997,83.211 351.891,87.406 347.898 C 96.162 339.562,95.786 339.800,100.234 339.800 C 104.840 339.800,105.283 340.080,113.352 348.091 C 116.932 351.645,119.614 354.000,120.083 354.000 C 120.542 354.000,123.442 351.536,127.131 348.013 C 135.647 339.881,136.291 339.479,140.505 339.661 C 144.719 339.843,145.644 340.458,153.388 348.236 C 160.536 355.413,159.434 355.427,166.991 348.072 C 173.425 341.812,175.533 340.273,178.308 339.811 C 180.456 339.454,183.844 339.901,184.582 340.639 C 184.890 340.948,185.368 341.200,185.644 341.200 C 185.920 341.200,189.044 344.080,192.588 347.600 C 200.276 355.237,199.632 355.085,204.246 350.362 C 214.914 339.440,214.392 339.800,219.576 339.800 C 224.814 339.800,224.940 339.877,233.195 348.175 C 240.417 355.434,239.336 355.431,246.712 348.220 C 254.883 340.233,255.438 339.855,259.287 339.667 C 263.849 339.444,264.938 340.098,272.625 347.671 C 276.159 351.152,279.374 354.000,279.769 354.000 C 280.168 354.000,283.478 350.987,287.208 347.227 C 294.830 339.545,295.037 339.426,300.445 339.656 C 304.519 339.830,303.958 339.445,312.609 347.992 L 319.018 354.324 320.209 353.821 C 320.864 353.543,323.155 351.486,325.300 349.248 L 329.200 345.180 329.200 199.995 L 329.200 54.811 325.180 50.638 C 319.762 45.012,319.526 44.948,316.249 48.225 M273.104 119.070 C 278.110 121.603,280.100 128.340,277.110 132.634 C 274.148 136.888,134.228 275.934,132.400 276.440 C 122.959 279.056,115.533 271.279,119.651 263.089 C 121.309 259.792,258.916 121.903,263.000 119.446 C 266.188 117.528,269.791 117.394,273.104 119.070 M158.400 120.573 C 166.325 122.592,169.255 124.024,174.972 128.672 C 178.553 131.584,183.508 138.422,184.240 141.465 C 184.391 142.089,184.832 143.236,185.221 144.013 C 187.103 147.776,187.121 161.146,185.249 165.384 C 184.857 166.273,184.403 167.529,184.241 168.176 C 184.079 168.822,183.599 169.840,183.173 170.437 C 182.748 171.035,182.400 171.695,182.400 171.905 C 182.400 173.177,176.947 179.430,173.400 182.224 C 168.289 186.251,165.863 187.358,157.200 189.616 C 155.408 190.083,148.287 190.075,146.200 189.604 C 135.954 187.288,129.734 183.742,124.442 177.200 C 122.085 174.285,120.018 171.207,120.007 170.594 C 120.003 170.371,119.657 169.547,119.237 168.764 C 114.998 160.855,115.963 145.525,121.199 137.600 C 121.563 137.050,122.456 135.700,123.183 134.600 C 124.823 132.122,129.935 127.076,131.921 125.975 C 137.473 122.898,138.820 122.246,140.600 121.772 C 141.700 121.479,143.500 120.973,144.600 120.647 C 147.235 119.866,155.451 119.822,158.400 120.573 M149.000 140.357 C 145.851 140.942,142.149 143.282,139.571 146.318 C 137.200 149.109,135.994 155.946,137.312 159.124 C 137.649 159.936,138.148 161.197,138.421 161.926 C 140.878 168.478,152.053 172.121,158.475 168.463 C 167.403 163.377,169.271 151.600,162.247 144.675 C 158.769 141.246,153.488 139.524,149.000 140.357 M253.727 211.252 C 264.870 214.922,272.394 222.240,276.785 233.680 C 278.583 238.366,278.937 249.836,277.411 254.000 C 277.048 254.990,276.562 256.426,276.331 257.192 C 273.559 266.385,263.499 275.747,253.455 278.480 C 247.997 279.965,247.100 280.079,242.264 279.908 C 234.543 279.636,228.714 277.616,222.015 272.894 C 219.972 271.454,215.603 266.820,214.151 264.554 C 212.393 261.811,210.000 257.018,210.000 256.242 C 210.000 255.946,209.609 254.556,209.131 253.152 C 207.873 249.459,207.878 240.196,209.140 236.448 C 209.613 235.044,210.000 233.694,209.999 233.448 C 209.999 233.202,210.939 231.122,212.088 228.826 C 219.564 213.887,238.046 206.088,253.727 211.252 M239.263 230.029 C 228.736 232.100,224.718 248.280,233.000 255.251 C 235.166 257.075,236.283 257.724,238.438 258.412 C 248.682 261.685,258.087 254.944,258.087 244.331 C 258.087 234.166,249.890 227.939,239.263 230.029 M343.500 361.511 C 343.115 361.592,342.800 361.825,342.800 362.029 C 342.800 362.233,342.498 362.400,342.128 362.400 C 341.250 362.400,338.800 365.087,338.800 366.050 C 338.800 366.717,339.134 366.800,341.800 366.800 L 344.800 366.800 344.794 364.500 C 344.787 361.919,344.518 361.297,343.500 361.511 " stroke="none" fill="#fcecc3" fill-rule="evenodd"></path><path id="path2" d="M80.000 44.307 C 78.742 44.498,70.933 52.099,70.158 53.887 C 69.484 55.441,69.303 343.968,69.975 345.734 C 70.877 348.108,79.111 355.600,80.817 355.600 C 81.133 355.600,83.461 353.426,92.913 344.300 C 93.995 343.255,95.043 342.400,95.241 342.400 C 95.438 342.400,96.001 341.999,96.490 341.510 C 97.769 340.231,102.636 340.244,104.018 341.530 C 104.525 342.004,105.274 342.496,105.680 342.625 C 106.086 342.754,109.099 345.545,112.374 348.826 C 117.592 354.055,119.510 355.600,120.780 355.600 C 120.960 355.600,122.272 354.475,123.695 353.100 C 132.908 344.200,134.843 342.400,135.200 342.400 C 135.420 342.400,135.997 342.003,136.482 341.518 C 137.607 340.393,142.290 340.227,143.478 341.269 C 143.875 341.618,144.740 342.179,145.400 342.515 C 146.060 342.852,149.429 345.949,152.886 349.399 L 159.172 355.671 160.552 355.216 C 161.450 354.919,164.001 352.736,167.866 348.956 C 171.480 345.420,174.447 342.861,175.456 342.409 C 176.367 342.000,177.232 341.471,177.380 341.233 C 177.870 340.439,182.358 340.709,183.491 341.600 C 184.050 342.040,184.770 342.400,185.090 342.400 C 185.410 342.400,188.637 345.325,192.260 348.900 C 195.883 352.475,199.000 355.454,199.187 355.521 C 199.892 355.773,202.481 354.378,202.673 353.642 C 202.784 353.220,203.231 352.781,203.667 352.667 C 204.103 352.553,204.557 352.086,204.676 351.630 C 204.796 351.173,205.146 350.800,205.455 350.800 C 205.764 350.800,206.221 350.353,206.469 349.808 C 206.718 349.262,207.245 348.713,207.640 348.587 C 208.036 348.462,208.467 348.017,208.600 347.600 C 208.733 347.183,209.192 346.730,209.620 346.594 C 210.049 346.457,210.400 346.206,210.400 346.034 C 210.400 345.600,213.160 342.800,213.589 342.800 C 213.781 342.800,214.527 342.305,215.246 341.700 C 217.062 340.172,222.447 340.047,223.900 341.500 C 224.395 341.995,224.969 342.400,225.176 342.400 C 225.383 342.400,228.552 345.370,232.218 349.000 C 235.884 352.630,239.036 355.600,239.223 355.600 C 240.300 355.600,242.136 354.292,244.676 351.716 C 246.258 350.112,247.653 348.800,247.776 348.800 C 247.899 348.800,249.058 347.742,250.352 346.448 C 259.049 337.751,261.150 338.073,272.964 349.913 L 278.927 355.890 280.666 355.045 C 281.623 354.580,282.503 353.894,282.623 353.520 C 282.743 353.147,283.192 352.730,283.620 352.594 C 284.049 352.457,284.400 352.207,284.400 352.038 C 284.400 351.632,293.156 342.888,294.852 341.600 C 296.507 340.343,302.581 340.104,303.873 341.244 C 304.273 341.598,307.850 345.066,311.823 348.952 L 319.046 356.018 320.723 355.109 C 321.646 354.609,322.500 353.894,322.621 353.520 C 322.742 353.147,323.183 352.733,323.600 352.600 C 324.017 352.467,324.467 352.017,324.600 351.600 C 324.733 351.183,325.183 350.733,325.600 350.600 C 326.017 350.467,326.467 350.017,326.600 349.600 C 326.733 349.183,327.192 348.730,327.620 348.594 C 328.049 348.457,328.400 348.205,328.400 348.031 C 328.400 347.858,328.850 347.231,329.400 346.638 L 330.400 345.559 330.400 199.979 C 330.400 54.933,330.397 54.397,329.600 53.600 C 329.160 53.160,328.800 52.616,328.800 52.391 C 328.800 52.167,328.350 51.778,327.800 51.527 C 327.250 51.277,326.800 50.827,326.800 50.527 C 326.800 50.228,326.350 49.778,325.800 49.527 C 325.250 49.277,324.800 48.827,324.800 48.527 C 324.800 48.228,324.350 47.778,323.800 47.527 C 323.250 47.277,322.800 46.848,322.800 46.574 C 322.800 46.300,321.973 45.591,320.962 44.999 L 319.125 43.922 317.876 45.061 C 315.783 46.970,306.733 55.741,305.868 56.700 C 305.421 57.195,304.842 57.600,304.582 57.600 C 304.321 57.600,303.597 58.002,302.972 58.493 C 301.546 59.615,297.697 59.763,296.535 58.741 C 296.131 58.385,295.397 57.972,294.904 57.822 C 294.411 57.672,291.251 54.793,287.882 51.425 C 284.513 48.057,281.165 44.996,280.444 44.623 L 279.131 43.944 276.688 46.272 C 275.344 47.552,272.198 50.580,269.697 53.000 C 263.165 59.321,259.158 61.032,256.445 58.661 C 256.090 58.350,255.230 57.808,254.534 57.456 C 253.838 57.103,250.465 54.021,247.039 50.607 C 243.613 47.193,240.538 44.373,240.205 44.340 C 239.872 44.307,239.444 44.262,239.254 44.240 C 239.064 44.218,235.828 47.158,232.065 50.773 C 220.391 61.986,218.505 61.990,207.348 50.827 C 199.096 42.570,200.421 42.568,192.157 50.843 C 188.446 54.559,185.224 57.600,184.998 57.600 C 184.773 57.600,183.916 57.960,183.096 58.400 C 178.928 60.634,175.656 59.026,167.200 50.589 C 159.269 42.677,160.484 42.684,152.487 50.500 C 149.055 53.855,145.921 56.915,145.523 57.300 C 145.125 57.685,144.589 58.000,144.331 58.000 C 144.074 58.000,143.518 58.312,143.097 58.693 C 140.226 61.291,135.958 59.113,127.515 50.740 C 119.406 42.700,120.776 42.685,112.254 50.900 C 108.545 54.475,105.107 57.580,104.613 57.800 C 104.120 58.020,103.396 58.467,103.005 58.793 C 101.968 59.657,97.895 59.591,96.903 58.693 C 96.482 58.312,95.893 58.000,95.594 58.000 C 95.295 58.000,91.889 54.885,88.025 51.077 C 82.127 45.266,80.840 44.179,80.000 44.307 M325.180 50.638 L 329.200 54.811 329.200 199.995 L 329.200 345.180 325.300 349.248 C 323.155 351.486,320.864 353.543,320.209 353.821 L 319.018 354.324 312.609 347.992 C 303.958 339.445,304.519 339.830,300.445 339.656 C 295.037 339.426,294.830 339.545,287.208 347.227 C 283.478 350.987,280.168 354.000,279.769 354.000 C 279.374 354.000,276.159 351.152,272.625 347.671 C 264.938 340.098,263.849 339.444,259.287 339.667 C 255.438 339.855,254.883 340.233,246.712 348.220 C 239.336 355.431,240.417 355.434,233.195 348.175 C 224.940 339.877,224.814 339.800,219.576 339.800 C 214.392 339.800,214.914 339.440,204.246 350.362 C 199.632 355.085,200.276 355.237,192.588 347.600 C 189.044 344.080,185.920 341.200,185.644 341.200 C 185.368 341.200,184.890 340.948,184.582 340.639 C 183.844 339.901,180.456 339.454,178.308 339.811 C 175.533 340.273,173.425 341.812,166.991 348.072 C 159.434 355.427,160.536 355.413,153.388 348.236 C 145.644 340.458,144.719 339.843,140.505 339.661 C 136.291 339.479,135.647 339.881,127.131 348.013 C 123.442 351.536,120.542 354.000,120.083 354.000 C 119.614 354.000,116.932 351.645,113.352 348.091 C 105.283 340.080,104.840 339.800,100.234 339.800 C 95.786 339.800,96.162 339.562,87.406 347.898 C 83.211 351.891,80.702 353.997,80.136 353.998 C 79.395 354.000,75.866 350.716,71.500 345.962 C 70.836 345.239,70.800 337.721,70.800 199.829 L 70.800 54.459 74.999 50.229 C 80.441 44.748,79.618 44.605,87.513 52.400 C 91.079 55.920,94.193 58.800,94.435 58.800 C 94.676 58.800,95.331 59.160,95.891 59.600 C 97.362 60.757,102.638 60.757,104.109 59.600 C 104.669 59.160,105.291 58.800,105.492 58.800 C 105.694 58.800,108.815 55.927,112.429 52.415 C 120.694 44.384,119.344 44.385,127.412 52.400 C 130.956 55.920,134.157 58.800,134.527 58.800 C 134.897 58.800,135.200 58.951,135.200 59.136 C 135.200 59.843,137.350 60.400,140.077 60.400 C 143.770 60.400,145.004 59.582,153.000 51.837 C 160.607 44.468,159.470 44.454,167.005 52.019 C 174.061 59.103,175.999 60.400,179.523 60.400 C 181.789 60.400,183.912 59.910,184.392 59.275 C 184.506 59.124,185.230 58.679,186.000 58.286 C 186.770 57.894,190.010 54.970,193.200 51.789 C 200.475 44.533,199.326 44.501,207.055 52.185 C 210.477 55.587,213.664 58.488,214.138 58.632 C 214.612 58.777,215.306 59.163,215.681 59.492 C 217.739 61.297,225.013 59.969,226.551 57.507 C 226.794 57.118,227.156 56.800,227.356 56.800 C 227.557 56.800,228.650 55.855,229.785 54.700 C 234.922 49.474,238.905 46.000,239.758 46.000 C 240.372 46.000,242.594 47.928,246.908 52.204 C 250.350 55.615,253.579 58.593,254.083 58.821 C 254.587 59.048,255.450 59.494,256.000 59.811 C 257.873 60.892,264.400 60.367,264.400 59.136 C 264.400 58.951,264.646 58.800,264.946 58.800 C 265.246 58.800,267.991 56.354,271.046 53.365 C 280.386 44.226,278.936 44.295,287.290 52.586 C 290.734 56.004,293.760 58.800,294.013 58.800 C 294.266 58.800,294.931 59.160,295.491 59.600 C 297.881 61.480,306.800 59.592,306.800 57.206 C 306.800 57.012,307.151 56.743,307.580 56.606 C 308.008 56.470,308.464 56.028,308.593 55.623 C 308.721 55.218,309.194 54.790,309.643 54.673 C 310.092 54.555,310.553 54.103,310.667 53.667 C 310.781 53.231,311.231 52.781,311.667 52.667 C 312.103 52.553,312.557 52.086,312.676 51.630 C 312.796 51.173,313.069 50.800,313.284 50.800 C 313.498 50.800,314.833 49.641,316.249 48.225 C 319.526 44.948,319.762 45.012,325.180 50.638 M263.000 119.446 C 258.916 121.903,121.309 259.792,119.651 263.089 C 115.533 271.279,122.959 279.056,132.400 276.440 C 134.228 275.934,274.148 136.888,277.110 132.634 C 278.958 129.980,278.750 124.450,276.709 121.959 C 273.267 117.759,267.547 116.710,263.000 119.446 M144.600 120.647 C 143.500 120.973,141.700 121.479,140.600 121.772 C 138.820 122.246,137.473 122.898,131.921 125.975 C 129.935 127.076,124.823 132.122,123.183 134.600 C 122.456 135.700,121.563 137.050,121.199 137.600 C 115.963 145.525,114.998 160.855,119.237 168.764 C 119.657 169.547,120.003 170.371,120.007 170.594 C 120.018 171.207,122.085 174.285,124.442 177.200 C 129.734 183.742,135.954 187.288,146.200 189.604 C 148.287 190.075,155.408 190.083,157.200 189.616 C 165.863 187.358,168.289 186.251,173.400 182.224 C 176.947 179.430,182.400 173.177,182.400 171.905 C 182.400 171.695,182.748 171.035,183.173 170.437 C 183.599 169.840,184.079 168.822,184.241 168.176 C 184.403 167.529,184.857 166.273,185.249 165.384 C 187.121 161.146,187.103 147.776,185.221 144.013 C 184.832 143.236,184.391 142.089,184.240 141.465 C 183.508 138.422,178.553 131.584,174.972 128.672 C 169.255 124.024,166.325 122.592,158.400 120.573 C 155.451 119.822,147.235 119.866,144.600 120.647 M157.847 141.600 C 169.101 146.885,169.459 162.206,158.475 168.463 C 152.053 172.121,140.878 168.478,138.421 161.926 C 138.148 161.197,137.649 159.936,137.312 159.124 C 135.994 155.946,137.200 149.109,139.571 146.318 C 144.615 140.379,151.476 138.608,157.847 141.600 M238.800 209.971 C 228.256 210.962,217.080 218.851,212.088 228.826 C 210.939 231.122,209.999 233.202,209.999 233.448 C 210.000 233.694,209.613 235.044,209.140 236.448 C 207.878 240.196,207.873 249.459,209.131 253.152 C 209.609 254.556,210.000 255.946,210.000 256.242 C 210.000 257.018,212.393 261.811,214.151 264.554 C 215.603 266.820,219.972 271.454,222.015 272.894 C 228.714 277.616,234.543 279.636,242.264 279.908 C 247.100 280.079,247.997 279.965,253.455 278.480 C 263.499 275.747,273.559 266.385,276.331 257.192 C 276.562 256.426,277.048 254.990,277.411 254.000 C 278.937 249.836,278.583 238.366,276.785 233.680 C 270.413 217.080,256.377 208.319,238.800 209.971 M247.027 230.034 C 261.995 232.771,261.881 254.323,246.874 258.818 C 242.189 260.221,237.460 259.005,233.000 255.251 C 228.879 251.783,227.174 244.120,229.404 239.089 C 232.707 231.635,238.763 228.523,247.027 230.034 M341.748 361.006 C 339.440 362.033,336.685 366.800,338.400 366.800 C 338.620 366.800,338.800 366.463,338.800 366.050 C 338.800 365.087,341.250 362.400,342.128 362.400 C 342.498 362.400,342.800 362.241,342.800 362.047 C 342.800 361.494,344.337 361.231,344.574 361.742 C 344.690 361.994,344.742 361.840,344.689 361.400 C 344.569 360.412,343.428 360.260,341.748 361.006 M99.033 364.526 C 98.637 364.816,98.380 365.401,98.462 365.826 C 98.671 366.912,101.720 366.960,101.928 365.881 C 102.231 364.305,100.465 363.479,99.033 364.526 M138.483 364.500 C 137.554 365.620,138.363 366.800,140.059 366.800 C 141.764 366.800,142.445 365.999,141.723 364.846 C 141.207 364.020,139.070 363.793,138.483 364.500 M178.416 364.581 C 177.486 365.702,178.083 366.591,179.853 366.721 C 181.347 366.830,181.517 366.745,181.697 365.806 C 182.004 364.199,179.507 363.266,178.416 364.581 M218.416 364.581 C 217.486 365.702,218.083 366.591,219.853 366.721 C 221.327 366.828,221.519 366.738,221.687 365.856 C 221.977 364.339,219.438 363.349,218.416 364.581 M258.154 364.577 C 257.630 365.940,258.168 366.600,259.800 366.600 C 261.053 366.600,261.421 366.436,261.538 365.826 C 261.818 364.375,258.676 363.215,258.154 364.577 M298.267 364.267 C 298.120 364.413,298.000 365.043,298.000 365.667 C 298.000 367.214,300.941 367.419,301.347 365.900 C 301.710 364.541,299.280 363.253,298.267 364.267 " stroke="none" fill="#dab38c" fill-rule="evenodd"></path></g></svg>